                                                                        S0000001
,,31HOpen CASCADE IGES processor 7.9,13HFilename.iges,                  G0000001
16HOpen CASCADE 7.9,31HOpen CASCADE IGES processor 7.9,32,308,15,308,15,G0000002
,1.,2,2HMM,1,0.01,15H20260828.114020,1E-07,100.022832,12Handriivelhov,, G0000003
11,0,15H20260828.114020,;                                               G0000004
     402       1       0       0       0       0       0       000000000D0000001
     402       0       0       1       1                ASSEMBLY        D0000002
     144       2       0       0       0       0       0       000020000D0000003
     144       0       0       1       0                               0D0000004
     108       3       0       0       0       0       0       000010000D0000005
     108       0       0       1       0                               0D0000006
     142       4       0       0       0       0       0       000010500D0000007
     142       0       0       1       0                               0D0000008
     102       5       0       0       0       0       0       000010000D0000009
     102       0       0       1       0                               0D0000010
     110       6       0       0       0       0       0       000010000D0000011
     110       0       0       1       0                               0D0000012
     110       7       0       0       0       0       0       000010000D0000013
     110       0       0       1       0                               0D0000014
     110       8       0       0       0       0       0       000010000D0000015
     110       0       0       1       0                               0D0000016
     110       9       0       0       0       0       0       000010000D0000017
     110       0       0       1       0                               0D0000018
     144      10       0       0       0       0       0       000020000D0000019
     144       0       0       1       0                               0D0000020
     108      11       0       0       0       0       0       000010000D0000021
     108       0       0       1       0                               0D0000022
     142      12       0       0       0       0       0       000010500D0000023
     142       0       0       1       0                               0D0000024
     102      13       0       0       0       0       0       000010000D0000025
     102       0       0       1       0                               0D0000026
     110      14       0       0       0       0       0       000010000D0000027
     110       0       0       1       0                               0D0000028
     110      15       0       0       0       0       0       000010000D0000029
     110       0       0       1       0                               0D0000030
     110      16       0       0       0       0       0       000010000D0000031
     110       0       0       1       0                               0D0000032
     110      17       0       0       0       0       0       000010000D0000033
     110       0       0       1       0                               0D0000034
     144      18       0       0       0       0       0       000020000D0000035
     144       0       0       1       0                               0D0000036
     108      19       0       0       0       0       0       000010000D0000037
     108       0       0       1       0                               0D0000038
     142      20       0       0       0       0       0       000010500D0000039
     142       0       0       1       0                               0D0000040
     102      21       0       0       0       0       0       000010000D0000041
     102       0       0       1       0                               0D0000042
     110      22       0       0       0       0       0       000010000D0000043
     110       0       0       1       0                               0D0000044
     110      23       0       0       0       0       0       000010000D0000045
     110       0       0       1       0                               0D0000046
     110      24       0       0       0       0       0       000010000D0000047
     110       0       0       1       0                               0D0000048
     110      25       0       0       0       0       0       000010000D0000049
     110       0       0       1       0                               0D0000050
     142      26       0       0       0       0       0       000010500D0000051
     142       0       0       1       0                               0D0000052
     100      27       0       0       0       0      55       000010000D0000053
     100       0       0       1       0                               0D0000054
     124      28       0       0       0       0       0       000000000D0000055
     124       0       0       1       0                               0D0000056
     142      29       0       0       0       0       0       000010500D0000057
     142       0       0       1       0                               0D0000058
     100      30       0       0       0       0      61       000010000D0000059
     100       0       0       1       0                               0D0000060
     124      31       0       0       0       0       0       000000000D0000061
     124       0       0       1       0                               0D0000062
     142      32       0       0       0       0       0       000010500D0000063
     142       0       0       1       0                               0D0000064
     100      33       0       0       0       0      67       000010000D0000065
     100       0       0       1       0                               0D0000066
     124      34       0       0       0       0       0       000000000D0000067
     124       0       0       1       0                               0D0000068
     142      35       0       0       0       0       0       000010500D0000069
     142       0       0       1       0                               0D0000070
     100      36       0       0       0       0      73       000010000D0000071
     100       0       0       1       0                               0D0000072
     124      37       0       0       0       0       0       000000000D0000073
     124       0       0       1       0                               0D0000074
     144      38       0       0       0       0       0       000020000D0000075
     144       0       0       1       0                               0D0000076
     108      39       0       0       0       0       0       000010000D0000077
     108       0       0       1       0                               0D0000078
     142      40       0       0       0       0       0       000010500D0000079
     142       0       0       1       0                               0D0000080
     102      41       0       0       0       0       0       000010000D0000081
     102       0       0       1       0                               0D0000082
     110      42       0       0       0       0       0       000010000D0000083
     110       0       0       1       0                               0D0000084
     110      43       0       0       0       0       0       000010000D0000085
     110       0       0       1       0                               0D0000086
     110      44       0       0       0       0       0       000010000D0000087
     110       0       0       1       0                               0D0000088
     110      45       0       0       0       0       0       000010000D0000089
     110       0       0       1       0                               0D0000090
     144      46       0       0       0       0       0       000020000D0000091
     144       0       0       1       0                               0D0000092
     108      47       0       0       0       0       0       000010000D0000093
     108       0       0       1       0                               0D0000094
     142      48       0       0       0       0       0       000010500D0000095
     142       0       0       1       0                               0D0000096
     102      49       0       0       0       0       0       000010000D0000097
     102       0       0       1       0                               0D0000098
     110      50       0       0       0       0       0       000010000D0000099
     110       0       0       1       0                               0D0000100
     110      51       0       0       0       0       0       000010000D0000101
     110       0       0       1       0                               0D0000102
     110      52       0       0       0       0       0       000010000D0000103
     110       0       0       1       0                               0D0000104
     110      53       0       0       0       0       0       000010000D0000105
     110       0       0       1       0                               0D0000106
     142      54       0       0       0       0       0       000010500D0000107
     142       0       0       1       0                               0D0000108
     100      55       0       0       0       0     111       000010000D0000109
     100       0       0       1       0                               0D0000110
     124      56       0       0       0       0       0       000000000D0000111
     124       0       0       1       0                               0D0000112
     142      57       0       0       0       0       0       000010500D0000113
     142       0       0       1       0                               0D0000114
     100      58       0       0       0       0     117       000010000D0000115
     100       0       0       1       0                               0D0000116
     124      59       0       0       0       0       0       000000000D0000117
     124       0       0       1       0                               0D0000118
     142      60       0       0       0       0       0       000010500D0000119
     142       0       0       1       0                               0D0000120
     100      61       0       0       0       0     123       000010000D0000121
     100       0       0       1       0                               0D0000122
     124      62       0       0       0       0       0       000000000D0000123
     124       0       0       1       0                               0D0000124
     142      63       0       0       0       0       0       000010500D0000125
     142       0       0       1       0                               0D0000126
     100      64       0       0       0       0     129       000010000D0000127
     100       0       0       1       0                               0D0000128
     124      65       0       0       0       0       0       000000000D0000129
     124       0       0       1       0                               0D0000130
     144      66       0       0       0       0       0       000020000D0000131
     144       0       0       1       0                               0D0000132
     108      67       0       0       0       0       0       000010000D0000133
     108       0       0       1       0                               0D0000134
     142      68       0       0       0       0       0       000010500D0000135
     142       0       0       1       0                               0D0000136
     102      69       0       0       0       0       0       000010000D0000137
     102       0       0       1       0                               0D0000138
     110      70       0       0       0       0       0       000010000D0000139
     110       0       0       1       0                               0D0000140
     110      71       0       0       0       0       0       000010000D0000141
     110       0       0       1       0                               0D0000142
     110      72       0       0       0       0       0       000010000D0000143
     110       0       0       1       0                               0D0000144
     110      73       0       0       0       0       0       000010000D0000145
     110       0       0       1       0                               0D0000146
     144      74       0       0       0       0       0       000020000D0000147
     144       0       0       1       0                               0D0000148
     120      75       0       0       0       0     151       000010000D0000149
     120       0       0       1       0                               0D0000150
     124      76       0       0       0       0       0       000000000D0000151
     124       0       0       1       1                               0D0000152
     110      77       0       0       0       0       0       000010000D0000153
     110       0       0       1       0                               0D0000154
     110      78       0       0       0       0       0       000010000D0000155
     110       0       0       1       0                               0D0000156
     142      79       0       0       0       0       0       000010500D0000157
     142       0       0       1       0                               0D0000158
     102      80       0       0       0       0       0       000010000D0000159
     102       0       0       1       0                               0D0000160
     110      81       0       0       0       0       0       000010000D0000161
     110       0       0       1       0                               0D0000162
     110      82       0       0       0       0       0       000010000D0000163
     110       0       0       1       0                               0D0000164
     110      83       0       0       0       0       0       000010000D0000165
     110       0       0       1       0                               0D0000166
     110      84       0       0       0       0       0       000010000D0000167
     110       0       0       2       0                               0D0000168
     102      86       0       0       0       0       0       000010000D0000169
     102       0       0       1       0                               0D0000170
     110      87       0       0       0       0       0       000010000D0000171
     110       0       0       1       0                               0D0000172
     100      88       0       0       0       0     175       000010000D0000173
     100       0       0       1       0                               0D0000174
     124      89       0       0       0       0       0       000000000D0000175
     124       0       0       1       0                               0D0000176
     110      90       0       0       0       0       0       000010000D0000177
     110       0       0       1       0                               0D0000178
     100      91       0       0       0       0     181       000010000D0000179
     100       0       0       1       0                               0D0000180
     124      92       0       0       0       0       0       000000000D0000181
     124       0       0       1       0                               0D0000182
     144      93       0       0       0       0       0       000020000D0000183
     144       0       0       1       0                               0D0000184
     120      94       0       0       0       0     187       000010000D0000185
     120       0       0       1       0                               0D0000186
     124      95       0       0       0       0       0       000000000D0000187
     124       0       0       1       1                               0D0000188
     110      96       0       0       0       0       0       000010000D0000189
     110       0       0       1       0                               0D0000190
     110      97       0       0       0       0       0       000010000D0000191
     110       0       0       1       0                               0D0000192
     142      98       0       0       0       0       0       000010500D0000193
     142       0       0       1       0                               0D0000194
     102      99       0       0       0       0       0       000010000D0000195
     102       0       0       1       0                               0D0000196
     110     100       0       0       0       0       0       000010000D0000197
     110       0       0       1       0                               0D0000198
     110     101       0       0       0       0       0       000010000D0000199
     110       0       0       1       0                               0D0000200
     110     102       0       0       0       0       0       000010000D0000201
     110       0       0       1       0                               0D0000202
     110     103       0       0       0       0       0       000010000D0000203
     110       0       0       2       0                               0D0000204
     102     105       0       0       0       0       0       000010000D0000205
     102       0       0       1       0                               0D0000206
     110     106       0       0       0       0       0       000010000D0000207
     110       0       0       1       0                               0D0000208
     100     107       0       0       0       0     211       000010000D0000209
     100       0       0       1       0                               0D0000210
     124     108       0       0       0       0       0       000000000D0000211
     124       0       0       1       0                               0D0000212
     110     109       0       0       0       0       0       000010000D0000213
     110       0       0       1       0                               0D0000214
     100     110       0       0       0       0     217       000010000D0000215
     100       0       0       1       0                               0D0000216
     124     111       0       0       0       0       0       000000000D0000217
     124       0       0       1       0                               0D0000218
     144     112       0       0       0       0       0       000020000D0000219
     144       0       0       1       0                               0D0000220
     120     113       0       0       0       0     223       000010000D0000221
     120       0       0       1       0                               0D0000222
     124     114       0       0       0       0       0       000000000D0000223
     124       0       0       1       1                               0D0000224
     110     115       0       0       0       0       0       000010000D0000225
     110       0       0       1       0                               0D0000226
     110     116       0       0       0       0       0       000010000D0000227
     110       0       0       1       0                               0D0000228
     142     117       0       0       0       0       0       000010500D0000229
     142       0       0       1       0                               0D0000230
     102     118       0       0       0       0       0       000010000D0000231
     102       0       0       1       0                               0D0000232
     110     119       0       0       0       0       0       000010000D0000233
     110       0       0       1       0                               0D0000234
     110     120       0       0       0       0       0       000010000D0000235
     110       0       0       1       0                               0D0000236
     110     121       0       0       0       0       0       000010000D0000237
     110       0       0       1       0                               0D0000238
     110     122       0       0       0       0       0       000010000D0000239
     110       0       0       2       0                               0D0000240
     102     124       0       0       0       0       0       000010000D0000241
     102       0       0       1       0                               0D0000242
     110     125       0       0       0       0       0       000010000D0000243
     110       0       0       1       0                               0D0000244
     100     126       0       0       0       0     247       000010000D0000245
     100       0       0       1       0                               0D0000246
     124     127       0       0       0       0       0       000000000D0000247
     124       0       0       1       0                               0D0000248
     110     128       0       0       0       0       0       000010000D0000249
     110       0       0       1       0                               0D0000250
     100     129       0       0       0       0     253       000010000D0000251
     100       0       0       1       0                               0D0000252
     124     130       0       0       0       0       0       000000000D0000253
     124       0       0       1       0                               0D0000254
     144     131       0       0       0       0       0       000020000D0000255
     144       0       0       1       0                               0D0000256
     120     132       0       0       0       0     259       000010000D0000257
     120       0       0       1       0                               0D0000258
     124     133       0       0       0       0       0       000000000D0000259
     124       0       0       1       1                               0D0000260
     110     134       0       0       0       0       0       000010000D0000261
     110       0       0       1       0                               0D0000262
     110     135       0       0       0       0       0       000010000D0000263
     110       0       0       1       0                               0D0000264
     142     136       0       0       0       0       0       000010500D0000265
     142       0       0       1       0                               0D0000266
     102     137       0       0       0       0       0       000010000D0000267
     102       0       0       1       0                               0D0000268
     110     138       0       0       0       0       0       000010000D0000269
     110       0       0       1       0                               0D0000270
     110     139       0       0       0       0       0       000010000D0000271
     110       0       0       1       0                               0D0000272
     110     140       0       0       0       0       0       000010000D0000273
     110       0       0       1       0                               0D0000274
     110     141       0       0       0       0       0       000010000D0000275
     110       0       0       2       0                               0D0000276
     102     143       0       0       0       0       0       000010000D0000277
     102       0       0       1       0                               0D0000278
     110     144       0       0       0       0       0       000010000D0000279
     110       0       0       1       0                               0D0000280
     100     145       0       0       0       0     283       000010000D0000281
     100       0       0       1       0                               0D0000282
     124     146       0       0       0       0       0       000000000D0000283
     124       0       0       1       0                               0D0000284
     110     147       0       0       0       0       0       000010000D0000285
     110       0       0       1       0                               0D0000286
     100     148       0       0       0       0     289       000010000D0000287
     100       0       0       1       0                               0D0000288
     124     149       0       0       0       0       0       000000000D0000289
     124       0       0       1       0                               0D0000290
     406     150       0       0       0       0       0       000000000D0000291
     406       0       0       1      15                               0D0000292
     406     151       0       0       0       0       0       000000000D0000293
     406       0       0       1      15                               0D0000294
402,10,3,19,35,75,91,131,147,183,219,255,0,2,291,293;            0000001P0000001
144,5,1,0,7;                                                     0000003P0000002
108,-1.,-0.,0.,-0.,0,0.,0.,0.,0.;                                0000005P0000003
142,0,5,0,9,2;                                                   0000007P0000004
102,4,11,13,15,17;                                               0000009P0000005
110,0.,60.,0.,0.,0.,0.;                                          0000011P0000006
110,0.,0.,0.,0.,0.,10.;                                          0000013P0000007
110,0.,0.,10.,0.,60.,10.;                                        0000015P0000008
110,0.,60.,10.,0.,60.,0.;                                        0000017P0000009
144,21,1,0,23;                                                   0000019P0000010
108,0.,-1.,-0.,-0.,0,0.,0.,0.,0.;                                0000021P0000011
142,0,21,0,25,2;                                                 0000023P0000012
102,4,27,29,31,33;                                               0000025P0000013
110,0.,0.,10.,0.,0.,0.;                                          0000027P0000014
110,0.,0.,0.,100.,0.,0.;                                         0000029P0000015
110,100.,0.,0.,100.,0.,10.;                                      0000031P0000016
110,100.,0.,10.,0.,0.,10.;                                       0000033P0000017
144,37,1,4,39,51,57,63,69;                                       0000035P0000018
108,0.,0.,1.,10.,0,0.,0.,10.,0.;                                 0000037P0000019
142,0,37,0,41,2;                                                 0000039P0000020
102,4,43,45,47,49;                                               0000041P0000021
110,0.,60.,10.,0.,0.,10.;                                        0000043P0000022
110,0.,0.,10.,100.,0.,10.;                                       0000045P0000023
110,100.,0.,10.,100.,60.,10.;                                    0000047P0000024
110,100.,60.,10.,0.,60.,10.;                                     0000049P0000025
142,0,37,0,53,2;                                                 0000051P0000026
100,0.,0.,0.,6.,0.,6.,0.;                                        0000053P0000027
124,1.,0.,0.,15.,0.,-1.,0.,15.,0.,0.,-1.,10.;                    0000055P0000028
142,0,37,0,59,2;                                                 0000057P0000029
100,0.,0.,0.,4.,0.,4.,0.;                                        0000059P0000030
124,1.,0.,0.,85.,0.,-1.,0.,15.,0.,0.,-1.,10.;                    0000061P0000031
142,0,37,0,65,2;                                                 0000063P0000032
100,0.,0.,0.,3.,0.,3.,0.;                                        0000065P0000033
124,1.,0.,0.,15.,0.,-1.,0.,45.,0.,0.,-1.,10.;                    0000067P0000034
142,0,37,0,71,2;                                                 0000069P0000035
100,0.,0.,0.,2.5,0.,2.5,0.;                                      0000071P0000036
124,1.,0.,0.,85.,0.,-1.,0.,45.,0.,0.,-1.,10.;                    0000073P0000037
144,77,1,0,79;                                                   0000075P0000038
108,-0.,1.,0.,60.,0,0.,60.,0.,0.;                                0000077P0000039
142,0,77,0,81,2;                                                 0000079P0000040
102,4,83,85,87,89;                                               0000081P0000041
110,100.,60.,0.,0.,60.,0.;                                       0000083P0000042
110,0.,60.,0.,0.,60.,10.;                                        0000085P0000043
110,0.,60.,10.,100.,60.,10.;                                     0000087P0000044
110,100.,60.,10.,100.,60.,0.;                                    0000089P0000045
144,93,1,4,95,107,113,119,125;                                   0000091P0000046
108,-0.,-0.,-1.,-0.,0,0.,0.,0.,0.;                               0000093P0000047
142,0,93,0,97,2;                                                 0000095P0000048
102,4,99,101,103,105;                                            0000097P0000049
110,100.,60.,0.,100.,0.,0.;                                      0000099P0000050
110,100.,0.,0.,0.,0.,0.;                                         0000101P0000051
110,0.,0.,0.,0.,60.,0.;                                          0000103P0000052
110,0.,60.,0.,100.,60.,0.;                                       0000105P0000053
142,0,93,0,109,2;                                                0000107P0000054
100,0.,0.,0.,6.,0.,6.,0.;                                        0000109P0000055
124,1.,0.,0.,15.,0.,1.,0.,15.,0.,0.,1.,0.;                       0000111P0000056
142,0,93,0,115,2;                                                0000113P0000057
100,0.,0.,0.,4.,0.,4.,0.;                                        0000115P0000058
124,1.,0.,0.,85.,0.,1.,0.,15.,0.,0.,1.,0.;                       0000117P0000059
142,0,93,0,121,2;                                                0000119P0000060
100,0.,0.,0.,3.,0.,3.,0.;                                        0000121P0000061
124,1.,0.,0.,15.,0.,1.,0.,45.,0.,0.,1.,0.;                       0000123P0000062
142,0,93,0,127,2;                                                0000125P0000063
100,0.,0.,0.,2.5,0.,2.5,0.;                                      0000127P0000064
124,1.,0.,0.,85.,0.,1.,0.,45.,0.,0.,1.,0.;                       0000129P0000065
144,133,1,0,135;                                                 0000131P0000066
108,1.,0.,-0.,100.,0,100.,0.,0.,0.;                              0000133P0000067
142,0,133,0,137,2;                                               0000135P0000068
102,4,139,141,143,145;                                           0000137P0000069
110,100.,0.,10.,100.,0.,0.;                                      0000139P0000070
110,100.,0.,0.,100.,60.,0.;                                      0000141P0000071
110,100.,60.,0.,100.,60.,10.;                                    0000143P0000072
110,100.,60.,10.,100.,0.,10.;                                    0000145P0000073
144,149,1,0,157;                                                 0000147P0000074
120,153,155,0.,6.283185307;                                      0000149P0000075
124,1.,0.,0.,15.,0.,-1.,0.,15.,0.,0.,1.,-1.;                     0000151P0000076
110,0.,0.,1.,0.,0.,0.;                                           0000153P0000077
110,6.,0.,1.,6.,0.,11.;                                          0000155P0000078
142,0,149,159,169,3;                                             0000157P0000079
102,4,161,163,165,167;                                           0000159P0000080
110,-8.881784197E-17,1.065480738E-15,0.,1.,2.838503924E-15,0.;   0000161P0000081
110,1.,3.552713679E-15,0.,1.,6.283185307,0.;                     0000163P0000082
110,1.,6.283185307,0.,2.220446049E-17,6.283185307,0.;            0000165P0000083
110,2.767680502E-32,6.283185307,0.,-1.114023323E-16,             0000167P0000084
1.776356839E-15,0.;                                              0000167P0000085
102,4,171,173,177,179;                                           0000169P0000086
110,21.,15.,0.,21.,15.,10.;                                      0000171P0000087
100,0.,0.,0.,6.,0.,6.,0.;                                        0000173P0000088
124,1.,0.,0.,15.,0.,1.,0.,15.,0.,0.,1.,10.;                      0000175P0000089
110,21.,15.,10.,21.,15.,0.;                                      0000177P0000090
100,0.,0.,0.,6.,0.,6.,0.;                                        0000179P0000091
124,1.,0.,0.,15.,0.,-1.,0.,15.,0.,0.,-1.,0.;                     0000181P0000092
144,185,1,0,193;                                                 0000183P0000093
120,189,191,0.,6.283185307;                                      0000185P0000094
124,1.,0.,0.,85.,0.,-1.,0.,15.,0.,0.,1.,-1.;                     0000187P0000095
110,0.,0.,1.,0.,0.,0.;                                           0000189P0000096
110,4.,0.,1.,4.,0.,11.;                                          0000191P0000097
142,0,185,195,205,3;                                             0000193P0000098
102,4,197,199,201,203;                                           0000195P0000099
110,-8.881784197E-17,1.065480738E-15,0.,1.,2.838503924E-15,0.;   0000197P0000100
110,1.,3.552713679E-15,0.,1.,6.283185307,0.;                     0000199P0000101
110,1.,6.283185307,0.,2.220446049E-17,6.283185307,0.;            0000201P0000102
110,2.767680502E-32,6.283185307,0.,-1.114023323E-16,             0000203P0000103
1.776356839E-15,0.;                                              0000203P0000104
102,4,207,209,213,215;                                           0000205P0000105
110,89.,15.,0.,89.,15.,10.;                                      0000207P0000106
100,0.,0.,0.,4.,0.,4.,0.;                                        0000209P0000107
124,1.,0.,0.,85.,0.,1.,0.,15.,0.,0.,1.,10.;                      0000211P0000108
110,89.,15.,10.,89.,15.,0.;                                      0000213P0000109
100,0.,0.,0.,4.,0.,4.,0.;                                        0000215P0000110
124,1.,0.,0.,85.,0.,-1.,0.,15.,0.,0.,-1.,0.;                     0000217P0000111
144,221,1,0,229;                                                 0000219P0000112
120,225,227,0.,6.283185307;                                      0000221P0000113
124,1.,0.,0.,15.,0.,-1.,0.,45.,0.,0.,1.,-1.;                     0000223P0000114
110,0.,0.,1.,0.,0.,0.;                                           0000225P0000115
110,3.,0.,1.,3.,0.,11.;                                          0000227P0000116
142,0,221,231,241,3;                                             0000229P0000117
102,4,233,235,237,239;                                           0000231P0000118
110,-8.881784197E-17,1.065480738E-15,0.,1.,2.838503924E-15,0.;   0000233P0000119
110,1.,3.552713679E-15,0.,1.,6.283185307,0.;                     0000235P0000120
110,1.,6.283185307,0.,2.220446049E-17,6.283185307,0.;            0000237P0000121
110,2.767680502E-32,6.283185307,0.,-1.114023323E-16,             0000239P0000122
1.776356839E-15,0.;                                              0000239P0000123
102,4,243,245,249,251;                                           0000241P0000124
110,18.,45.,0.,18.,45.,10.;                                      0000243P0000125
100,0.,0.,0.,3.,0.,3.,0.;                                        0000245P0000126
124,1.,0.,0.,15.,0.,1.,0.,45.,0.,0.,1.,10.;                      0000247P0000127
110,18.,45.,10.,18.,45.,0.;                                      0000249P0000128
100,0.,0.,0.,3.,0.,3.,0.;                                        0000251P0000129
124,1.,0.,0.,15.,0.,-1.,0.,45.,0.,0.,-1.,0.;                     0000253P0000130
144,257,1,0,265;                                                 0000255P0000131
120,261,263,0.,6.283185307;                                      0000257P0000132
124,1.,0.,0.,85.,0.,-1.,0.,45.,0.,0.,1.,-1.;                     0000259P0000133
110,0.,0.,1.,0.,0.,0.;                                           0000261P0000134
110,2.5,0.,1.,2.5,0.,11.;                                        0000263P0000135
142,0,257,267,277,3;                                             0000265P0000136
102,4,269,271,273,275;                                           0000267P0000137
110,-8.881784197E-17,1.065480738E-15,0.,1.,2.838503924E-15,0.;   0000269P0000138
110,1.,3.552713679E-15,0.,1.,6.283185307,0.;                     0000271P0000139
110,1.,6.283185307,0.,2.220446049E-17,6.283185307,0.;            0000273P0000140
110,2.767680502E-32,6.283185307,0.,-1.114023323E-16,             0000275P0000141
1.776356839E-15,0.;                                              0000275P0000142
102,4,279,281,285,287;                                           0000277P0000143
110,87.5,45.,0.,87.5,45.,10.;                                    0000279P0000144
100,0.,0.,0.,2.5,0.,2.5,0.;                                      0000281P0000145
124,1.,0.,0.,85.,0.,1.,0.,45.,0.,0.,1.,10.;                      0000283P0000146
110,87.5,45.,10.,87.5,45.,0.;                                    0000285P0000147
100,0.,0.,0.,2.5,0.,2.5,0.;                                      0000287P0000148
124,1.,0.,0.,85.,0.,-1.,0.,45.,0.,0.,-1.,0.;                     0000289P0000149
406,1,11H=>[0:1:1:2];                                            0000291P0000150
406,1,8HASSEMBLY;                                                0000293P0000151
S      1G      4D    294P    151                                        T0000001
