# Exported by Open CASCADE Technology [dev.opencascade.org]
#  Vertices: 608
#     Faces: 604
g ASSEMBLY/SOLID
v 0.000000 0.000000 0.000000
v 0.000000 10.000000 0.000000
v 0.000000 0.000000 -60.000000
v 0.000000 10.000000 -60.000000
vn -1.000000 0.000000 0.000000
vn -1.000000 0.000000 0.000000
vn -1.000000 0.000000 0.000000
vn -1.000000 0.000000 0.000000
vt 0.000000 0.000000
vt 10.000000 0.000000
vt 0.000000 -60.000000
vt 10.000000 -60.000000
f 2/2/2 3/3/3 1/1/1
f 2/2/2 4/4/4 3/3/3
v 0.000000 0.000000 0.000000
v 100.000000 0.000000 0.000000
v 0.000000 10.000000 0.000000
v 100.000000 10.000000 0.000000
vn 0.000000 0.000000 1.000000
vn 0.000000 0.000000 1.000000
vn 0.000000 0.000000 1.000000
vn 0.000000 0.000000 1.000000
vt 0.000000 0.000000
vt 0.000000 100.000000
vt 10.000000 0.000000
vt 10.000000 100.000000
f 6/6/6 7/7/7 5/5/5
f 8/8/8 7/7/7 6/6/6
v 0.000000 10.000000 0.000000
v 0.000000 10.000000 -60.000000
v 100.000000 10.000000 0.000000
v 100.000000 10.000000 -60.000000
v 21.000000 10.000000 -15.000000
v 20.908846 10.000000 -16.041889
v 20.638155 10.000000 -17.052120
v 20.196152 10.000000 -18.000000
v 19.596266 10.000000 -18.856726
v 18.856726 10.000000 -19.596266
v 18.000000 10.000000 -20.196152
v 17.052120 10.000000 -20.638155
v 16.041889 10.000000 -20.908846
v 15.000000 10.000000 -21.000000
v 13.958111 10.000000 -20.908846
v 12.947879 10.000000 -20.638155
v 12.000000 10.000000 -20.196152
v 11.143274 10.000000 -19.596266
v 10.403733 10.000000 -18.856726
v 9.803847 10.000000 -18.000000
v 9.361844 10.000000 -17.052120
v 9.091153 10.000000 -16.041889
v 9.000000 10.000000 -15.000000
v 9.091153 10.000000 -13.958111
v 9.361844 10.000000 -12.947879
v 9.803847 10.000000 -12.000000
v 10.403733 10.000000 -11.143274
v 11.143274 10.000000 -10.403733
v 12.000000 10.000000 -9.803847
v 12.947879 10.000000 -9.361844
v 13.958111 10.000000 -9.091153
v 15.000000 10.000000 -9.000000
v 16.041889 10.000000 -9.091153
v 17.052120 10.000000 -9.361844
v 18.000000 10.000000 -9.803847
v 18.856726 10.000000 -10.403733
v 19.596266 10.000000 -11.143274
v 20.196152 10.000000 -12.000000
v 20.638155 10.000000 -12.947879
v 20.908846 10.000000 -13.958111
v 89.000000 10.000000 -15.000000
v 88.939232 10.000000 -15.694592
v 88.758774 10.000000 -16.368080
v 88.464104 10.000000 -17.000000
v 88.064178 10.000000 -17.571150
v 87.571152 10.000000 -18.064178
v 87.000000 10.000000 -18.464102
v 86.368080 10.000000 -18.758770
v 85.694595 10.000000 -18.939232
v 85.000000 10.000000 -19.000000
v 84.305405 10.000000 -18.939232
v 83.631920 10.000000 -18.758770
v 83.000000 10.000000 -18.464102
v 82.428848 10.000000 -18.064178
v 81.935822 10.000000 -17.571150
v 81.535896 10.000000 -17.000000
v 81.241226 10.000000 -16.368080
v 81.060768 10.000000 -15.694592
v 81.000000 10.000000 -15.000000
v 81.060768 10.000000 -14.305408
v 81.241226 10.000000 -13.631920
v 81.535896 10.000000 -13.000000
v 81.935822 10.000000 -12.428849
v 82.428848 10.000000 -11.935822
v 83.000000 10.000000 -11.535898
v 83.631920 10.000000 -11.241229
v 84.305405 10.000000 -11.060769
v 85.000000 10.000000 -11.000000
v 85.694595 10.000000 -11.060769
v 86.368080 10.000000 -11.241229
v 87.000000 10.000000 -11.535898
v 87.571152 10.000000 -11.935822
v 88.064178 10.000000 -12.428849
v 88.464104 10.000000 -13.000000
v 88.758774 10.000000 -13.631920
v 88.939232 10.000000 -14.305408
v 18.000000 10.000000 -45.000000
v 17.954424 10.000000 -45.520943
v 17.819078 10.000000 -46.026062
v 17.598076 10.000000 -46.500000
v 17.298134 10.000000 -46.928364
v 16.928362 10.000000 -47.298134
v 16.500000 10.000000 -47.598076
v 16.026060 10.000000 -47.819077
v 15.520945 10.000000 -47.954422
v 15.000000 10.000000 -48.000000
v 14.479055 10.000000 -47.954422
v 13.973940 10.000000 -47.819077
v 13.500000 10.000000 -47.598076
v 13.071637 10.000000 -47.298134
v 12.701867 10.000000 -46.928364
v 12.401924 10.000000 -46.500000
v 12.180923 10.000000 -46.026062
v 12.045577 10.000000 -45.520943
v 12.000000 10.000000 -45.000000
v 12.045577 10.000000 -44.479057
v 12.180923 10.000000 -43.973938
v 12.401924 10.000000 -43.500000
v 12.701867 10.000000 -43.071636
v 13.071637 10.000000 -42.701866
v 13.500000 10.000000 -42.401924
v 13.973940 10.000000 -42.180923
v 14.479055 10.000000 -42.045578
v 15.000000 10.000000 -42.000000
v 15.520945 10.000000 -42.045578
v 16.026060 10.000000 -42.180923
v 16.500000 10.000000 -42.401924
v 16.928362 10.000000 -42.701866
v 17.298134 10.000000 -43.071636
v 17.598076 10.000000 -43.500000
v 17.819078 10.000000 -43.973938
v 17.954424 10.000000 -44.479057
v 87.500000 10.000000 -45.000000
v 87.462021 10.000000 -45.434120
v 87.349228 10.000000 -45.855049
v 87.165062 10.000000 -46.250000
v 86.915108 10.000000 -46.606968
v 86.606972 10.000000 -46.915112
v 86.250000 10.000000 -47.165062
v 85.855049 10.000000 -47.349232
v 85.434120 10.000000 -47.462021
v 85.000000 10.000000 -47.500000
v 84.565880 10.000000 -47.462021
v 84.144951 10.000000 -47.349232
v 83.750000 10.000000 -47.165062
v 83.393028 10.000000 -46.915112
v 83.084892 10.000000 -46.606968
v 82.834938 10.000000 -46.250000
v 82.650772 10.000000 -45.855049
v 82.537979 10.000000 -45.434120
v 82.500000 10.000000 -45.000000
v 82.537979 10.000000 -44.565880
v 82.650772 10.000000 -44.144951
v 82.834938 10.000000 -43.750000
v 83.084892 10.000000 -43.393032
v 83.393028 10.000000 -43.084888
v 83.750000 10.000000 -42.834938
v 84.144951 10.000000 -42.650768
v 84.565880 10.000000 -42.537979
v 85.000000 10.000000 -42.500000
v 85.434120 10.000000 -42.537979
v 85.855049 10.000000 -42.650768
v 86.250000 10.000000 -42.834938
v 86.606972 10.000000 -43.084888
v 86.915108 10.000000 -43.393032
v 87.165062 10.000000 -43.750000
v 87.349228 10.000000 -44.144951
v 87.462021 10.000000 -44.565880
vn 0.000000 1.000000 0.000000
vn 0.000000 1.000000 0.000000
vn 0.000000 1.000000 0.000000
vn 0.000000 1.000000 0.000000
vn 0.000000 1.000000 0.000000
vn 0.000000 1.000000 0.000000
vn 0.000000 1.000000 0.000000
vn 0.000000 1.000000 0.000000
vn 0.000000 1.000000 0.000000
vn 0.000000 1.000000 0.000000
vn 0.000000 1.000000 0.000000
vn 0.000000 1.000000 0.000000
vn 0.000000 1.000000 0.000000
vn 0.000000 1.000000 0.000000
vn 0.000000 1.000000 0.000000
vn 0.000000 1.000000 0.000000
vn 0.000000 1.000000 0.000000
vn 0.000000 1.000000 0.000000
vn 0.000000 1.000000 0.000000
vn 0.000000 1.000000 0.000000
vn 0.000000 1.000000 0.000000
vn 0.000000 1.000000 0.000000
vn 0.000000 1.000000 0.000000
vn 0.000000 1.000000 0.000000
vn 0.000000 1.000000 0.000000
vn 0.000000 1.000000 0.000000
vn 0.000000 1.000000 0.000000
vn 0.000000 1.000000 0.000000
vn 0.000000 1.000000 0.000000
vn 0.000000 1.000000 0.000000
vn 0.000000 1.000000 0.000000
vn 0.000000 1.000000 0.000000
vn 0.000000 1.000000 0.000000
vn 0.000000 1.000000 0.000000
vn 0.000000 1.000000 0.000000
vn 0.000000 1.000000 0.000000
vn 0.000000 1.000000 0.000000
vn 0.000000 1.000000 0.000000
vn 0.000000 1.000000 0.000000
vn 0.000000 1.000000 0.000000
vn 0.000000 1.000000 0.000000
vn 0.000000 1.000000 0.000000
vn 0.000000 1.000000 0.000000
vn 0.000000 1.000000 0.000000
vn 0.000000 1.000000 0.000000
vn 0.000000 1.000000 0.000000
vn 0.000000 1.000000 0.000000
vn 0.000000 1.000000 0.000000
vn 0.000000 1.000000 0.000000
vn 0.000000 1.000000 0.000000
vn 0.000000 1.000000 0.000000
vn 0.000000 1.000000 0.000000
vn 0.000000 1.000000 0.000000
vn 0.000000 1.000000 0.000000
vn 0.000000 1.000000 0.000000
vn 0.000000 1.000000 0.000000
vn 0.000000 1.000000 0.000000
vn 0.000000 1.000000 0.000000
vn 0.000000 1.000000 0.000000
vn 0.000000 1.000000 0.000000
vn 0.000000 1.000000 0.000000
vn 0.000000 1.000000 0.000000
vn 0.000000 1.000000 0.000000
vn 0.000000 1.000000 0.000000
vn 0.000000 1.000000 0.000000
vn 0.000000 1.000000 0.000000
vn 0.000000 1.000000 0.000000
vn 0.000000 1.000000 0.000000
vn 0.000000 1.000000 0.000000
vn 0.000000 1.000000 0.000000
vn 0.000000 1.000000 0.000000
vn 0.000000 1.000000 0.000000
vn 0.000000 1.000000 0.000000
vn 0.000000 1.000000 0.000000
vn 0.000000 1.000000 0.000000
vn 0.000000 1.000000 0.000000
vn 0.000000 1.000000 0.000000
vn 0.000000 1.000000 0.000000
vn 0.000000 1.000000 0.000000
vn 0.000000 1.000000 0.000000
vn 0.000000 1.000000 0.000000
vn 0.000000 1.000000 0.000000
vn 0.000000 1.000000 0.000000
vn 0.000000 1.000000 0.000000
vn 0.000000 1.000000 0.000000
vn 0.000000 1.000000 0.000000
vn 0.000000 1.000000 0.000000
vn 0.000000 1.000000 0.000000
vn 0.000000 1.000000 0.000000
vn 0.000000 1.000000 0.000000
vn 0.000000 1.000000 0.000000
vn 0.000000 1.000000 0.000000
vn 0.000000 1.000000 0.000000
vn 0.000000 1.000000 0.000000
vn 0.000000 1.000000 0.000000
vn 0.000000 1.000000 0.000000
vn 0.000000 1.000000 0.000000
vn 0.000000 1.000000 0.000000
vn 0.000000 1.000000 0.000000
vn 0.000000 1.000000 0.000000
vn 0.000000 1.000000 0.000000
vn 0.000000 1.000000 0.000000
vn 0.000000 1.000000 0.000000
vn 0.000000 1.000000 0.000000
vn 0.000000 1.000000 0.000000
vn 0.000000 1.000000 0.000000
vn 0.000000 1.000000 0.000000
vn 0.000000 1.000000 0.000000
vn 0.000000 1.000000 0.000000
vn 0.000000 1.000000 0.000000
vn 0.000000 1.000000 0.000000
vn 0.000000 1.000000 0.000000
vn 0.000000 1.000000 0.000000
vn 0.000000 1.000000 0.000000
vn 0.000000 1.000000 0.000000
vn 0.000000 1.000000 0.000000
vn 0.000000 1.000000 0.000000
vn 0.000000 1.000000 0.000000
vn 0.000000 1.000000 0.000000
vn 0.000000 1.000000 0.000000
vn 0.000000 1.000000 0.000000
vn 0.000000 1.000000 0.000000
vn 0.000000 1.000000 0.000000
vn 0.000000 1.000000 0.000000
vn 0.000000 1.000000 0.000000
vn 0.000000 1.000000 0.000000
vn 0.000000 1.000000 0.000000
vn 0.000000 1.000000 0.000000
vn 0.000000 1.000000 0.000000
vn 0.000000 1.000000 0.000000
vn 0.000000 1.000000 0.000000
vn 0.000000 1.000000 0.000000
vn 0.000000 1.000000 0.000000
vn 0.000000 1.000000 0.000000
vn 0.000000 1.000000 0.000000
vn 0.000000 1.000000 0.000000
vn 0.000000 1.000000 0.000000
vn 0.000000 1.000000 0.000000
vn 0.000000 1.000000 0.000000
vn 0.000000 1.000000 0.000000
vn 0.000000 1.000000 0.000000
vn 0.000000 1.000000 0.000000
vn 0.000000 1.000000 0.000000
vn 0.000000 1.000000 0.000000
vn 0.000000 1.000000 0.000000
vn 0.000000 1.000000 0.000000
vn 0.000000 1.000000 0.000000
vn 0.000000 1.000000 0.000000
vt 0.000000 0.000000
vt 0.000000 60.000000
vt 100.000000 0.000000
vt 100.000000 60.000000
vt 21.000000 15.000000
vt 20.908846 16.041889
vt 20.638155 17.052120
vt 20.196152 18.000000
vt 19.596266 18.856726
vt 18.856726 19.596266
vt 18.000000 20.196152
vt 17.052120 20.638155
vt 16.041889 20.908846
vt 15.000000 21.000000
vt 13.958111 20.908846
vt 12.947879 20.638155
vt 12.000000 20.196152
vt 11.143274 19.596266
vt 10.403733 18.856726
vt 9.803847 18.000000
vt 9.361844 17.052120
vt 9.091153 16.041889
vt 9.000000 15.000000
vt 9.091153 13.958111
vt 9.361844 12.947879
vt 9.803847 12.000000
vt 10.403733 11.143274
vt 11.143274 10.403733
vt 12.000000 9.803847
vt 12.947879 9.361844
vt 13.958111 9.091153
vt 15.000000 9.000000
vt 16.041889 9.091153
vt 17.052120 9.361844
vt 18.000000 9.803847
vt 18.856726 10.403733
vt 19.596266 11.143274
vt 20.196152 12.000000
vt 20.638155 12.947879
vt 20.908846 13.958111
vt 89.000000 15.000000
vt 88.939232 15.694592
vt 88.758774 16.368080
vt 88.464104 17.000000
vt 88.064178 17.571150
vt 87.571152 18.064178
vt 87.000000 18.464102
vt 86.368080 18.758770
vt 85.694595 18.939232
vt 85.000000 19.000000
vt 84.305405 18.939232
vt 83.631920 18.758770
vt 83.000000 18.464102
vt 82.428848 18.064178
vt 81.935822 17.571150
vt 81.535896 17.000000
vt 81.241226 16.368080
vt 81.060768 15.694592
vt 81.000000 15.000000
vt 81.060768 14.305408
vt 81.241226 13.631920
vt 81.535896 13.000000
vt 81.935822 12.428849
vt 82.428848 11.935822
vt 83.000000 11.535898
vt 83.631920 11.241229
vt 84.305405 11.060769
vt 85.000000 11.000000
vt 85.694595 11.060769
vt 86.368080 11.241229
vt 87.000000 11.535898
vt 87.571152 11.935822
vt 88.064178 12.428849
vt 88.464104 13.000000
vt 88.758774 13.631920
vt 88.939232 14.305408
vt 18.000000 45.000000
vt 17.954424 45.520943
vt 17.819078 46.026062
vt 17.598076 46.500000
vt 17.298134 46.928364
vt 16.928362 47.298134
vt 16.500000 47.598076
vt 16.026060 47.819077
vt 15.520945 47.954422
vt 15.000000 48.000000
vt 14.479055 47.954422
vt 13.973940 47.819077
vt 13.500000 47.598076
vt 13.071637 47.298134
vt 12.701867 46.928364
vt 12.401924 46.500000
vt 12.180923 46.026062
vt 12.045577 45.520943
vt 12.000000 45.000000
vt 12.045577 44.479057
vt 12.180923 43.973938
vt 12.401924 43.500000
vt 12.701867 43.071636
vt 13.071637 42.701866
vt 13.500000 42.401924
vt 13.973940 42.180923
vt 14.479055 42.045578
vt 15.000000 42.000000
vt 15.520945 42.045578
vt 16.026060 42.180923
vt 16.500000 42.401924
vt 16.928362 42.701866
vt 17.298134 43.071636
vt 17.598076 43.500000
vt 17.819078 43.973938
vt 17.954424 44.479057
vt 87.500000 45.000000
vt 87.462021 45.434120
vt 87.349228 45.855049
vt 87.165062 46.250000
vt 86.915108 46.606968
vt 86.606972 46.915112
vt 86.250000 47.165062
vt 85.855049 47.349232
vt 85.434120 47.462021
vt 85.000000 47.500000
vt 84.565880 47.462021
vt 84.144951 47.349232
vt 83.750000 47.165062
vt 83.393028 46.915112
vt 83.084892 46.606968
vt 82.834938 46.250000
vt 82.650772 45.855049
vt 82.537979 45.434120
vt 82.500000 45.000000
vt 82.537979 44.565880
vt 82.650772 44.144951
vt 82.834938 43.750000
vt 83.084892 43.393032
vt 83.393028 43.084888
vt 83.750000 42.834938
vt 84.144951 42.650768
vt 84.565880 42.537979
vt 85.000000 42.500000
vt 85.434120 42.537979
vt 85.855049 42.650768
vt 86.250000 42.834938
vt 86.606972 43.084888
vt 86.915108 43.393032
vt 87.165062 43.750000
vt 87.349228 44.144951
vt 87.462021 44.565880
f 35/35/35 9/9/9 36/36/36
f 37/37/37 36/36/36 9/9/9
f 34/34/34 9/9/9 35/35/35
f 38/38/38 37/37/37 9/9/9
f 33/33/33 9/9/9 34/34/34
f 39/39/39 38/38/38 9/9/9
f 32/32/32 9/9/9 33/33/33
f 40/40/40 39/39/39 9/9/9
f 31/31/31 9/9/9 32/32/32
f 41/41/41 40/40/40 9/9/9
f 30/30/30 9/9/9 31/31/31
f 42/42/42 41/41/41 9/9/9
f 29/29/29 9/9/9 30/30/30
f 108/108/108 26/26/26 25/25/25
f 107/107/107 27/27/27 26/26/26
f 107/107/107 26/26/26 108/108/108
f 109/109/109 25/25/25 24/24/24
f 109/109/109 108/108/108 25/25/25
f 106/106/106 28/28/28 27/27/27
f 106/106/106 27/27/27 107/107/107
f 110/110/110 24/24/24 23/23/23
f 110/110/110 109/109/109 24/24/24
f 105/105/105 28/28/28 106/106/106
f 111/111/111 110/110/110 23/23/23
f 111/111/111 23/23/23 22/22/22
f 112/112/112 111/111/111 22/22/22
f 113/113/113 22/22/22 21/21/21
f 113/113/113 112/112/112 22/22/22
f 114/114/114 21/21/21 20/20/20
f 114/114/114 113/113/113 21/21/21
f 115/115/115 20/20/20 19/19/19
f 115/115/115 114/114/114 20/20/20
f 116/116/116 19/19/19 18/18/18
f 116/116/116 115/115/115 19/19/19
f 10/10/10 28/28/28 105/105/105
f 10/10/10 29/29/29 28/28/28
f 10/10/10 9/9/9 29/29/29
f 10/10/10 100/100/100 99/99/99
f 10/10/10 101/101/101 100/100/100
f 10/10/10 102/102/102 101/101/101
f 10/10/10 103/103/103 102/102/102
f 10/10/10 104/104/104 103/103/103
f 10/10/10 105/105/105 104/104/104
f 117/117/117 18/18/18 17/17/17
f 117/117/117 116/116/116 18/18/18
f 98/98/98 10/10/10 99/99/99
f 118/118/118 17/17/17 16/16/16
f 118/118/118 117/117/117 17/17/17
f 97/97/97 10/10/10 98/98/98
f 119/119/119 118/118/118 16/16/16
f 96/96/96 10/10/10 97/97/97
f 95/95/95 10/10/10 96/96/96
f 94/94/94 10/10/10 95/95/95
f 93/93/93 10/10/10 94/94/94
f 92/92/92 10/10/10 93/93/93
f 91/91/91 10/10/10 92/92/92
f 71/71/71 46/46/46 45/45/45
f 72/72/72 71/71/71 45/45/45
f 72/72/72 45/45/45 44/44/44
f 73/73/73 44/44/44 43/43/43
f 73/73/73 72/72/72 44/44/44
f 70/70/70 47/47/47 46/46/46
f 70/70/70 46/46/46 71/71/71
f 69/69/69 48/48/48 47/47/47
f 69/69/69 47/47/47 70/70/70
f 68/68/68 13/13/13 48/48/48
f 68/68/68 48/48/48 69/69/69
f 67/67/67 13/13/13 68/68/68
f 66/66/66 14/14/14 13/13/13
f 66/66/66 13/13/13 67/67/67
f 65/65/65 15/15/15 14/14/14
f 65/65/65 14/14/14 66/66/66
f 64/64/64 15/15/15 65/65/65
f 64/64/64 16/16/16 15/15/15
f 11/11/11 73/73/73 43/43/43
f 11/11/11 43/43/43 42/42/42
f 11/11/11 74/74/74 73/73/73
f 11/11/11 75/75/75 74/74/74
f 11/11/11 76/76/76 75/75/75
f 11/11/11 77/77/77 76/76/76
f 11/11/11 78/78/78 77/77/77
f 11/11/11 79/79/79 78/78/78
f 11/11/11 80/80/80 79/79/79
f 11/11/11 42/42/42 9/9/9
f 81/81/81 80/80/80 11/11/11
f 82/82/82 81/81/81 11/11/11
f 83/83/83 82/82/82 11/11/11
f 84/84/84 83/83/83 11/11/11
f 49/49/49 84/84/84 11/11/11
f 50/50/50 49/49/49 11/11/11
f 51/51/51 50/50/50 11/11/11
f 144/144/144 62/62/62 61/61/61
f 143/143/143 62/62/62 144/144/144
f 143/143/143 63/63/63 62/62/62
f 142/142/142 64/64/64 63/63/63
f 142/142/142 63/63/63 143/143/143
f 145/145/145 61/61/61 60/60/60
f 145/145/145 144/144/144 61/61/61
f 146/146/146 60/60/60 59/59/59
f 146/146/146 145/145/145 60/60/60
f 141/141/141 120/120/120 119/119/119
f 141/141/141 16/16/16 64/64/64
f 141/141/141 119/119/119 16/16/16
f 141/141/141 64/64/64 142/142/142
f 147/147/147 146/146/146 59/59/59
f 147/147/147 59/59/59 58/58/58
f 140/140/140 85/85/85 120/120/120
f 140/140/140 120/120/120 141/141/141
f 148/148/148 147/147/147 58/58/58
f 139/139/139 85/85/85 140/140/140
f 149/149/149 148/148/148 58/58/58
f 149/149/149 58/58/58 57/57/57
f 138/138/138 85/85/85 139/139/139
f 138/138/138 86/86/86 85/85/85
f 150/150/150 149/149/149 57/57/57
f 150/150/150 57/57/57 56/56/56
f 137/137/137 87/87/87 86/86/86
f 137/137/137 86/86/86 138/138/138
f 151/151/151 56/56/56 55/55/55
f 151/151/151 150/150/150 56/56/56
f 136/136/136 88/88/88 87/87/87
f 136/136/136 87/87/87 137/137/137
f 152/152/152 55/55/55 54/54/54
f 152/152/152 151/151/151 55/55/55
f 135/135/135 89/89/89 88/88/88
f 135/135/135 88/88/88 136/136/136
f 153/153/153 54/54/54 53/53/53
f 153/153/153 152/152/152 54/54/54
f 134/134/134 89/89/89 135/135/135
f 134/134/134 90/90/90 89/89/89
f 154/154/154 53/53/53 52/52/52
f 154/154/154 153/153/153 53/53/53
f 133/133/133 90/90/90 134/134/134
f 133/133/133 91/91/91 90/90/90
f 155/155/155 154/154/154 52/52/52
f 12/12/12 122/122/122 121/121/121
f 12/12/12 123/123/123 122/122/122
f 12/12/12 155/155/155 52/52/52
f 12/12/12 124/124/124 123/123/123
f 12/12/12 125/125/125 124/124/124
f 12/12/12 126/126/126 125/125/125
f 12/12/12 127/127/127 126/126/126
f 12/12/12 128/128/128 127/127/127
f 12/12/12 129/129/129 128/128/128
f 12/12/12 130/130/130 129/129/129
f 12/12/12 131/131/131 130/130/130
f 12/12/12 132/132/132 131/131/131
f 12/12/12 133/133/133 132/132/132
f 12/12/12 52/52/52 51/51/51
f 12/12/12 156/156/156 155/155/155
f 12/12/12 121/121/121 156/156/156
f 12/12/12 51/51/51 11/11/11
f 12/12/12 10/10/10 91/91/91
f 12/12/12 91/91/91 133/133/133
v 0.000000 0.000000 -60.000000
v 100.000000 0.000000 -60.000000
v 0.000000 10.000000 -60.000000
v 100.000000 10.000000 -60.000000
vn 0.000000 0.000000 -1.000000
vn 0.000000 0.000000 -1.000000
vn 0.000000 0.000000 -1.000000
vn 0.000000 0.000000 -1.000000
vt 0.000000 0.000000
vt 0.000000 100.000000
vt 10.000000 0.000000
vt 10.000000 100.000000
f 158/158/158 157/157/157 159/159/159
f 160/160/160 158/158/158 159/159/159
v 0.000000 0.000000 0.000000
v 0.000000 0.000000 -60.000000
v 100.000000 0.000000 0.000000
v 100.000000 0.000000 -60.000000
v 21.000000 0.000000 -15.000000
v 20.908846 0.000000 -16.041889
v 20.638155 0.000000 -17.052120
v 20.196152 0.000000 -18.000000
v 19.596266 0.000000 -18.856726
v 18.856726 0.000000 -19.596266
v 18.000000 0.000000 -20.196152
v 17.052120 0.000000 -20.638155
v 16.041889 0.000000 -20.908846
v 15.000000 0.000000 -21.000000
v 13.958111 0.000000 -20.908846
v 12.947879 0.000000 -20.638155
v 12.000000 0.000000 -20.196152
v 11.143274 0.000000 -19.596266
v 10.403733 0.000000 -18.856726
v 9.803847 0.000000 -18.000000
v 9.361844 0.000000 -17.052120
v 9.091153 0.000000 -16.041889
v 9.000000 0.000000 -15.000000
v 9.091153 0.000000 -13.958111
v 9.361844 0.000000 -12.947879
v 9.803847 0.000000 -12.000000
v 10.403733 0.000000 -11.143274
v 11.143274 0.000000 -10.403733
v 12.000000 0.000000 -9.803847
v 12.947879 0.000000 -9.361844
v 13.958111 0.000000 -9.091153
v 15.000000 0.000000 -9.000000
v 16.041889 0.000000 -9.091153
v 17.052120 0.000000 -9.361844
v 18.000000 0.000000 -9.803847
v 18.856726 0.000000 -10.403733
v 19.596266 0.000000 -11.143274
v 20.196152 0.000000 -12.000000
v 20.638155 0.000000 -12.947879
v 20.908846 0.000000 -13.958111
v 89.000000 0.000000 -15.000000
v 88.939232 0.000000 -15.694592
v 88.758774 0.000000 -16.368080
v 88.464104 0.000000 -17.000000
v 88.064178 0.000000 -17.571150
v 87.571152 0.000000 -18.064178
v 87.000000 0.000000 -18.464102
v 86.368080 0.000000 -18.758770
v 85.694595 0.000000 -18.939232
v 85.000000 0.000000 -19.000000
v 84.305405 0.000000 -18.939232
v 83.631920 0.000000 -18.758770
v 83.000000 0.000000 -18.464102
v 82.428848 0.000000 -18.064178
v 81.935822 0.000000 -17.571150
v 81.535896 0.000000 -17.000000
v 81.241226 0.000000 -16.368080
v 81.060768 0.000000 -15.694592
v 81.000000 0.000000 -15.000000
v 81.060768 0.000000 -14.305408
v 81.241226 0.000000 -13.631920
v 81.535896 0.000000 -13.000000
v 81.935822 0.000000 -12.428849
v 82.428848 0.000000 -11.935822
v 83.000000 0.000000 -11.535898
v 83.631920 0.000000 -11.241229
v 84.305405 0.000000 -11.060769
v 85.000000 0.000000 -11.000000
v 85.694595 0.000000 -11.060769
v 86.368080 0.000000 -11.241229
v 87.000000 0.000000 -11.535898
v 87.571152 0.000000 -11.935822
v 88.064178 0.000000 -12.428849
v 88.464104 0.000000 -13.000000
v 88.758774 0.000000 -13.631920
v 88.939232 0.000000 -14.305408
v 18.000000 0.000000 -45.000000
v 17.954424 0.000000 -45.520943
v 17.819078 0.000000 -46.026062
v 17.598076 0.000000 -46.500000
v 17.298134 0.000000 -46.928364
v 16.928362 0.000000 -47.298134
v 16.500000 0.000000 -47.598076
v 16.026060 0.000000 -47.819077
v 15.520945 0.000000 -47.954422
v 15.000000 0.000000 -48.000000
v 14.479055 0.000000 -47.954422
v 13.973940 0.000000 -47.819077
v 13.500000 0.000000 -47.598076
v 13.071637 0.000000 -47.298134
v 12.701867 0.000000 -46.928364
v 12.401924 0.000000 -46.500000
v 12.180923 0.000000 -46.026062
v 12.045577 0.000000 -45.520943
v 12.000000 0.000000 -45.000000
v 12.045577 0.000000 -44.479057
v 12.180923 0.000000 -43.973938
v 12.401924 0.000000 -43.500000
v 12.701867 0.000000 -43.071636
v 13.071637 0.000000 -42.701866
v 13.500000 0.000000 -42.401924
v 13.973940 0.000000 -42.180923
v 14.479055 0.000000 -42.045578
v 15.000000 0.000000 -42.000000
v 15.520945 0.000000 -42.045578
v 16.026060 0.000000 -42.180923
v 16.500000 0.000000 -42.401924
v 16.928362 0.000000 -42.701866
v 17.298134 0.000000 -43.071636
v 17.598076 0.000000 -43.500000
v 17.819078 0.000000 -43.973938
v 17.954424 0.000000 -44.479057
v 87.500000 0.000000 -45.000000
v 87.462021 0.000000 -45.434120
v 87.349228 0.000000 -45.855049
v 87.165062 0.000000 -46.250000
v 86.915108 0.000000 -46.606968
v 86.606972 0.000000 -46.915112
v 86.250000 0.000000 -47.165062
v 85.855049 0.000000 -47.349232
v 85.434120 0.000000 -47.462021
v 85.000000 0.000000 -47.500000
v 84.565880 0.000000 -47.462021
v 84.144951 0.000000 -47.349232
v 83.750000 0.000000 -47.165062
v 83.393028 0.000000 -46.915112
v 83.084892 0.000000 -46.606968
v 82.834938 0.000000 -46.250000
v 82.650772 0.000000 -45.855049
v 82.537979 0.000000 -45.434120
v 82.500000 0.000000 -45.000000
v 82.537979 0.000000 -44.565880
v 82.650772 0.000000 -44.144951
v 82.834938 0.000000 -43.750000
v 83.084892 0.000000 -43.393032
v 83.393028 0.000000 -43.084888
v 83.750000 0.000000 -42.834938
v 84.144951 0.000000 -42.650768
v 84.565880 0.000000 -42.537979
v 85.000000 0.000000 -42.500000
v 85.434120 0.000000 -42.537979
v 85.855049 0.000000 -42.650768
v 86.250000 0.000000 -42.834938
v 86.606972 0.000000 -43.084888
v 86.915108 0.000000 -43.393032
v 87.165062 0.000000 -43.750000
v 87.349228 0.000000 -44.144951
v 87.462021 0.000000 -44.565880
vn 0.000000 -1.000000 0.000000
vn 0.000000 -1.000000 0.000000
vn 0.000000 -1.000000 0.000000
vn 0.000000 -1.000000 0.000000
vn 0.000000 -1.000000 0.000000
vn 0.000000 -1.000000 0.000000
vn 0.000000 -1.000000 0.000000
vn 0.000000 -1.000000 0.000000
vn 0.000000 -1.000000 0.000000
vn 0.000000 -1.000000 0.000000
vn 0.000000 -1.000000 0.000000
vn 0.000000 -1.000000 0.000000
vn 0.000000 -1.000000 0.000000
vn 0.000000 -1.000000 0.000000
vn 0.000000 -1.000000 0.000000
vn 0.000000 -1.000000 0.000000
vn 0.000000 -1.000000 0.000000
vn 0.000000 -1.000000 0.000000
vn 0.000000 -1.000000 0.000000
vn 0.000000 -1.000000 0.000000
vn 0.000000 -1.000000 0.000000
vn 0.000000 -1.000000 0.000000
vn 0.000000 -1.000000 0.000000
vn 0.000000 -1.000000 0.000000
vn 0.000000 -1.000000 0.000000
vn 0.000000 -1.000000 0.000000
vn 0.000000 -1.000000 0.000000
vn 0.000000 -1.000000 0.000000
vn 0.000000 -1.000000 0.000000
vn 0.000000 -1.000000 0.000000
vn 0.000000 -1.000000 0.000000
vn 0.000000 -1.000000 0.000000
vn 0.000000 -1.000000 0.000000
vn 0.000000 -1.000000 0.000000
vn 0.000000 -1.000000 0.000000
vn 0.000000 -1.000000 0.000000
vn 0.000000 -1.000000 0.000000
vn 0.000000 -1.000000 0.000000
vn 0.000000 -1.000000 0.000000
vn 0.000000 -1.000000 0.000000
vn 0.000000 -1.000000 0.000000
vn 0.000000 -1.000000 0.000000
vn 0.000000 -1.000000 0.000000
vn 0.000000 -1.000000 0.000000
vn 0.000000 -1.000000 0.000000
vn 0.000000 -1.000000 0.000000
vn 0.000000 -1.000000 0.000000
vn 0.000000 -1.000000 0.000000
vn 0.000000 -1.000000 0.000000
vn 0.000000 -1.000000 0.000000
vn 0.000000 -1.000000 0.000000
vn 0.000000 -1.000000 0.000000
vn 0.000000 -1.000000 0.000000
vn 0.000000 -1.000000 0.000000
vn 0.000000 -1.000000 0.000000
vn 0.000000 -1.000000 0.000000
vn 0.000000 -1.000000 0.000000
vn 0.000000 -1.000000 0.000000
vn 0.000000 -1.000000 0.000000
vn 0.000000 -1.000000 0.000000
vn 0.000000 -1.000000 0.000000
vn 0.000000 -1.000000 0.000000
vn 0.000000 -1.000000 0.000000
vn 0.000000 -1.000000 0.000000
vn 0.000000 -1.000000 0.000000
vn 0.000000 -1.000000 0.000000
vn 0.000000 -1.000000 0.000000
vn 0.000000 -1.000000 0.000000
vn 0.000000 -1.000000 0.000000
vn 0.000000 -1.000000 0.000000
vn 0.000000 -1.000000 0.000000
vn 0.000000 -1.000000 0.000000
vn 0.000000 -1.000000 0.000000
vn 0.000000 -1.000000 0.000000
vn 0.000000 -1.000000 0.000000
vn 0.000000 -1.000000 0.000000
vn 0.000000 -1.000000 0.000000
vn 0.000000 -1.000000 0.000000
vn 0.000000 -1.000000 0.000000
vn 0.000000 -1.000000 0.000000
vn 0.000000 -1.000000 0.000000
vn 0.000000 -1.000000 0.000000
vn 0.000000 -1.000000 0.000000
vn 0.000000 -1.000000 0.000000
vn 0.000000 -1.000000 0.000000
vn 0.000000 -1.000000 0.000000
vn 0.000000 -1.000000 0.000000
vn 0.000000 -1.000000 0.000000
vn 0.000000 -1.000000 0.000000
vn 0.000000 -1.000000 0.000000
vn 0.000000 -1.000000 0.000000
vn 0.000000 -1.000000 0.000000
vn 0.000000 -1.000000 0.000000
vn 0.000000 -1.000000 0.000000
vn 0.000000 -1.000000 0.000000
vn 0.000000 -1.000000 0.000000
vn 0.000000 -1.000000 0.000000
vn 0.000000 -1.000000 0.000000
vn 0.000000 -1.000000 0.000000
vn 0.000000 -1.000000 0.000000
vn 0.000000 -1.000000 0.000000
vn 0.000000 -1.000000 0.000000
vn 0.000000 -1.000000 0.000000
vn 0.000000 -1.000000 0.000000
vn 0.000000 -1.000000 0.000000
vn 0.000000 -1.000000 0.000000
vn 0.000000 -1.000000 0.000000
vn 0.000000 -1.000000 0.000000
vn 0.000000 -1.000000 0.000000
vn 0.000000 -1.000000 0.000000
vn 0.000000 -1.000000 0.000000
vn 0.000000 -1.000000 0.000000
vn 0.000000 -1.000000 0.000000
vn 0.000000 -1.000000 0.000000
vn 0.000000 -1.000000 0.000000
vn 0.000000 -1.000000 0.000000
vn 0.000000 -1.000000 0.000000
vn 0.000000 -1.000000 0.000000
vn 0.000000 -1.000000 0.000000
vn 0.000000 -1.000000 0.000000
vn 0.000000 -1.000000 0.000000
vn 0.000000 -1.000000 0.000000
vn 0.000000 -1.000000 0.000000
vn 0.000000 -1.000000 0.000000
vn 0.000000 -1.000000 0.000000
vn 0.000000 -1.000000 0.000000
vn 0.000000 -1.000000 0.000000
vn 0.000000 -1.000000 0.000000
vn 0.000000 -1.000000 0.000000
vn 0.000000 -1.000000 0.000000
vn 0.000000 -1.000000 0.000000
vn 0.000000 -1.000000 0.000000
vn 0.000000 -1.000000 0.000000
vn 0.000000 -1.000000 0.000000
vn 0.000000 -1.000000 0.000000
vn 0.000000 -1.000000 0.000000
vn 0.000000 -1.000000 0.000000
vn 0.000000 -1.000000 0.000000
vn 0.000000 -1.000000 0.000000
vn 0.000000 -1.000000 0.000000
vn 0.000000 -1.000000 0.000000
vn 0.000000 -1.000000 0.000000
vn 0.000000 -1.000000 0.000000
vn 0.000000 -1.000000 0.000000
vn 0.000000 -1.000000 0.000000
vn 0.000000 -1.000000 0.000000
vn 0.000000 -1.000000 0.000000
vn 0.000000 -1.000000 0.000000
vt 0.000000 0.000000
vt 0.000000 60.000000
vt 100.000000 0.000000
vt 100.000000 60.000000
vt 21.000000 15.000000
vt 20.908846 16.041889
vt 20.638155 17.052120
vt 20.196152 18.000000
vt 19.596266 18.856726
vt 18.856726 19.596266
vt 18.000000 20.196152
vt 17.052120 20.638155
vt 16.041889 20.908846
vt 15.000000 21.000000
vt 13.958111 20.908846
vt 12.947879 20.638155
vt 12.000000 20.196152
vt 11.143274 19.596266
vt 10.403733 18.856726
vt 9.803847 18.000000
vt 9.361844 17.052120
vt 9.091153 16.041889
vt 9.000000 15.000000
vt 9.091153 13.958111
vt 9.361844 12.947879
vt 9.803847 12.000000
vt 10.403733 11.143274
vt 11.143274 10.403733
vt 12.000000 9.803847
vt 12.947879 9.361844
vt 13.958111 9.091153
vt 15.000000 9.000000
vt 16.041889 9.091153
vt 17.052120 9.361844
vt 18.000000 9.803847
vt 18.856726 10.403733
vt 19.596266 11.143274
vt 20.196152 12.000000
vt 20.638155 12.947879
vt 20.908846 13.958111
vt 89.000000 15.000000
vt 88.939232 15.694592
vt 88.758774 16.368080
vt 88.464104 17.000000
vt 88.064178 17.571150
vt 87.571152 18.064178
vt 87.000000 18.464102
vt 86.368080 18.758770
vt 85.694595 18.939232
vt 85.000000 19.000000
vt 84.305405 18.939232
vt 83.631920 18.758770
vt 83.000000 18.464102
vt 82.428848 18.064178
vt 81.935822 17.571150
vt 81.535896 17.000000
vt 81.241226 16.368080
vt 81.060768 15.694592
vt 81.000000 15.000000
vt 81.060768 14.305408
vt 81.241226 13.631920
vt 81.535896 13.000000
vt 81.935822 12.428849
vt 82.428848 11.935822
vt 83.000000 11.535898
vt 83.631920 11.241229
vt 84.305405 11.060769
vt 85.000000 11.000000
vt 85.694595 11.060769
vt 86.368080 11.241229
vt 87.000000 11.535898
vt 87.571152 11.935822
vt 88.064178 12.428849
vt 88.464104 13.000000
vt 88.758774 13.631920
vt 88.939232 14.305408
vt 18.000000 45.000000
vt 17.954424 45.520943
vt 17.819078 46.026062
vt 17.598076 46.500000
vt 17.298134 46.928364
vt 16.928362 47.298134
vt 16.500000 47.598076
vt 16.026060 47.819077
vt 15.520945 47.954422
vt 15.000000 48.000000
vt 14.479055 47.954422
vt 13.973940 47.819077
vt 13.500000 47.598076
vt 13.071637 47.298134
vt 12.701867 46.928364
vt 12.401924 46.500000
vt 12.180923 46.026062
vt 12.045577 45.520943
vt 12.000000 45.000000
vt 12.045577 44.479057
vt 12.180923 43.973938
vt 12.401924 43.500000
vt 12.701867 43.071636
vt 13.071637 42.701866
vt 13.500000 42.401924
vt 13.973940 42.180923
vt 14.479055 42.045578
vt 15.000000 42.000000
vt 15.520945 42.045578
vt 16.026060 42.180923
vt 16.500000 42.401924
vt 16.928362 42.701866
vt 17.298134 43.071636
vt 17.598076 43.500000
vt 17.819078 43.973938
vt 17.954424 44.479057
vt 87.500000 45.000000
vt 87.462021 45.434120
vt 87.349228 45.855049
vt 87.165062 46.250000
vt 86.915108 46.606968
vt 86.606972 46.915112
vt 86.250000 47.165062
vt 85.855049 47.349232
vt 85.434120 47.462021
vt 85.000000 47.500000
vt 84.565880 47.462021
vt 84.144951 47.349232
vt 83.750000 47.165062
vt 83.393028 46.915112
vt 83.084892 46.606968
vt 82.834938 46.250000
vt 82.650772 45.855049
vt 82.537979 45.434120
vt 82.500000 45.000000
vt 82.537979 44.565880
vt 82.650772 44.144951
vt 82.834938 43.750000
vt 83.084892 43.393032
vt 83.393028 43.084888
vt 83.750000 42.834938
vt 84.144951 42.650768
vt 84.565880 42.537979
vt 85.000000 42.500000
vt 85.434120 42.537979
vt 85.855049 42.650768
vt 86.250000 42.834938
vt 86.606972 43.084888
vt 86.915108 43.393032
vt 87.165062 43.750000
vt 87.349228 44.144951
vt 87.462021 44.565880
f 187/187/187 188/188/188 161/161/161
f 189/189/189 161/161/161 188/188/188
f 186/186/186 187/187/187 161/161/161
f 190/190/190 161/161/161 189/189/189
f 185/185/185 186/186/186 161/161/161
f 191/191/191 161/161/161 190/190/190
f 184/184/184 185/185/185 161/161/161
f 192/192/192 161/161/161 191/191/191
f 183/183/183 184/184/184 161/161/161
f 193/193/193 161/161/161 192/192/192
f 182/182/182 183/183/183 161/161/161
f 194/194/194 161/161/161 193/193/193
f 181/181/181 182/182/182 161/161/161
f 260/260/260 177/177/177 178/178/178
f 259/259/259 178/178/178 179/179/179
f 259/259/259 260/260/260 178/178/178
f 261/261/261 176/176/176 177/177/177
f 261/261/261 177/177/177 260/260/260
f 258/258/258 179/179/179 180/180/180
f 258/258/258 259/259/259 179/179/179
f 262/262/262 175/175/175 176/176/176
f 262/262/262 176/176/176 261/261/261
f 257/257/257 258/258/258 180/180/180
f 263/263/263 175/175/175 262/262/262
f 263/263/263 174/174/174 175/175/175
f 264/264/264 174/174/174 263/263/263
f 265/265/265 173/173/173 174/174/174
f 265/265/265 174/174/174 264/264/264
f 266/266/266 172/172/172 173/173/173
f 266/266/266 173/173/173 265/265/265
f 267/267/267 171/171/171 172/172/172
f 267/267/267 172/172/172 266/266/266
f 268/268/268 170/170/170 171/171/171
f 268/268/268 171/171/171 267/267/267
f 162/162/162 257/257/257 180/180/180
f 162/162/162 180/180/180 181/181/181
f 162/162/162 181/181/181 161/161/161
f 162/162/162 251/251/251 252/252/252
f 162/162/162 252/252/252 253/253/253
f 162/162/162 253/253/253 254/254/254
f 162/162/162 254/254/254 255/255/255
f 162/162/162 255/255/255 256/256/256
f 162/162/162 256/256/256 257/257/257
f 269/269/269 169/169/169 170/170/170
f 269/269/269 170/170/170 268/268/268
f 250/250/250 251/251/251 162/162/162
f 270/270/270 168/168/168 169/169/169
f 270/270/270 169/169/169 269/269/269
f 249/249/249 250/250/250 162/162/162
f 271/271/271 168/168/168 270/270/270
f 248/248/248 249/249/249 162/162/162
f 247/247/247 248/248/248 162/162/162
f 246/246/246 247/247/247 162/162/162
f 245/245/245 246/246/246 162/162/162
f 244/244/244 245/245/245 162/162/162
f 243/243/243 244/244/244 162/162/162
f 223/223/223 197/197/197 198/198/198
f 224/224/224 197/197/197 223/223/223
f 224/224/224 196/196/196 197/197/197
f 225/225/225 195/195/195 196/196/196
f 225/225/225 196/196/196 224/224/224
f 222/222/222 198/198/198 199/199/199
f 222/222/222 223/223/223 198/198/198
f 221/221/221 199/199/199 200/200/200
f 221/221/221 222/222/222 199/199/199
f 220/220/220 200/200/200 165/165/165
f 220/220/220 221/221/221 200/200/200
f 219/219/219 220/220/220 165/165/165
f 218/218/218 165/165/165 166/166/166
f 218/218/218 219/219/219 165/165/165
f 217/217/217 166/166/166 167/167/167
f 217/217/217 218/218/218 166/166/166
f 216/216/216 217/217/217 167/167/167
f 216/216/216 167/167/167 168/168/168
f 163/163/163 195/195/195 225/225/225
f 163/163/163 194/194/194 195/195/195
f 163/163/163 225/225/225 226/226/226
f 163/163/163 226/226/226 227/227/227
f 163/163/163 227/227/227 228/228/228
f 163/163/163 228/228/228 229/229/229
f 163/163/163 229/229/229 230/230/230
f 163/163/163 230/230/230 231/231/231
f 163/163/163 231/231/231 232/232/232
f 163/163/163 161/161/161 194/194/194
f 233/233/233 163/163/163 232/232/232
f 234/234/234 163/163/163 233/233/233
f 235/235/235 163/163/163 234/234/234
f 236/236/236 163/163/163 235/235/235
f 201/201/201 163/163/163 236/236/236
f 202/202/202 163/163/163 201/201/201
f 203/203/203 163/163/163 202/202/202
f 296/296/296 213/213/213 214/214/214
f 295/295/295 296/296/296 214/214/214
f 295/295/295 214/214/214 215/215/215
f 294/294/294 215/215/215 216/216/216
f 294/294/294 295/295/295 215/215/215
f 297/297/297 212/212/212 213/213/213
f 297/297/297 213/213/213 296/296/296
f 298/298/298 211/211/211 212/212/212
f 298/298/298 212/212/212 297/297/297
f 293/293/293 271/271/271 272/272/272
f 293/293/293 216/216/216 168/168/168
f 293/293/293 168/168/168 271/271/271
f 293/293/293 294/294/294 216/216/216
f 299/299/299 211/211/211 298/298/298
f 299/299/299 210/210/210 211/211/211
f 292/292/292 272/272/272 237/237/237
f 292/292/292 293/293/293 272/272/272
f 300/300/300 210/210/210 299/299/299
f 291/291/291 292/292/292 237/237/237
f 301/301/301 210/210/210 300/300/300
f 301/301/301 209/209/209 210/210/210
f 290/290/290 291/291/291 237/237/237
f 290/290/290 237/237/237 238/238/238
f 302/302/302 209/209/209 301/301/301
f 302/302/302 208/208/208 209/209/209
f 289/289/289 238/238/238 239/239/239
f 289/289/289 290/290/290 238/238/238
f 303/303/303 207/207/207 208/208/208
f 303/303/303 208/208/208 302/302/302
f 288/288/288 239/239/239 240/240/240
f 288/288/288 289/289/289 239/239/239
f 304/304/304 206/206/206 207/207/207
f 304/304/304 207/207/207 303/303/303
f 287/287/287 240/240/240 241/241/241
f 287/287/287 288/288/288 240/240/240
f 305/305/305 205/205/205 206/206/206
f 305/305/305 206/206/206 304/304/304
f 286/286/286 287/287/287 241/241/241
f 286/286/286 241/241/241 242/242/242
f 306/306/306 204/204/204 205/205/205
f 306/306/306 205/205/205 305/305/305
f 285/285/285 286/286/286 242/242/242
f 285/285/285 242/242/242 243/243/243
f 307/307/307 204/204/204 306/306/306
f 164/164/164 273/273/273 274/274/274
f 164/164/164 274/274/274 275/275/275
f 164/164/164 204/204/204 307/307/307
f 164/164/164 275/275/275 276/276/276
f 164/164/164 276/276/276 277/277/277
f 164/164/164 277/277/277 278/278/278
f 164/164/164 278/278/278 279/279/279
f 164/164/164 279/279/279 280/280/280
f 164/164/164 280/280/280 281/281/281
f 164/164/164 281/281/281 282/282/282
f 164/164/164 282/282/282 283/283/283
f 164/164/164 283/283/283 284/284/284
f 164/164/164 284/284/284 285/285/285
f 164/164/164 203/203/203 204/204/204
f 164/164/164 307/307/307 308/308/308
f 164/164/164 308/308/308 273/273/273
f 164/164/164 163/163/163 203/203/203
f 164/164/164 243/243/243 162/162/162
f 164/164/164 285/285/285 243/243/243
v 100.000000 0.000000 0.000000
v 100.000000 10.000000 0.000000
v 100.000000 0.000000 -60.000000
v 100.000000 10.000000 -60.000000
vn 1.000000 0.000000 0.000000
vn 1.000000 0.000000 0.000000
vn 1.000000 0.000000 0.000000
vn 1.000000 0.000000 0.000000
vt 0.000000 0.000000
vt 10.000000 0.000000
vt 0.000000 -60.000000
vt 10.000000 -60.000000
f 310/310/310 309/309/309 311/311/311
f 310/310/310 311/311/311 312/312/312
v 21.000000 10.000000 -15.000000
v 20.908846 10.000000 -16.041889
v 20.638155 10.000000 -17.052120
v 20.196152 10.000000 -18.000000
v 19.596266 10.000000 -18.856726
v 18.856726 10.000000 -19.596266
v 18.000000 10.000000 -20.196152
v 17.052120 10.000000 -20.638155
v 16.041889 10.000000 -20.908846
v 15.000000 10.000000 -21.000000
v 13.958111 10.000000 -20.908846
v 12.947879 10.000000 -20.638155
v 12.000000 10.000000 -20.196152
v 11.143274 10.000000 -19.596266
v 10.403733 10.000000 -18.856726
v 9.803847 10.000000 -18.000000
v 9.361844 10.000000 -17.052120
v 9.091153 10.000000 -16.041889
v 9.000000 10.000000 -15.000000
v 9.091153 10.000000 -13.958111
v 9.361844 10.000000 -12.947879
v 9.803847 10.000000 -12.000000
v 10.403733 10.000000 -11.143274
v 11.143274 10.000000 -10.403733
v 12.000000 10.000000 -9.803847
v 12.947879 10.000000 -9.361844
v 13.958111 10.000000 -9.091153
v 15.000000 10.000000 -9.000000
v 16.041889 10.000000 -9.091153
v 17.052120 10.000000 -9.361844
v 18.000000 10.000000 -9.803847
v 18.856726 10.000000 -10.403733
v 19.596266 10.000000 -11.143274
v 20.196152 10.000000 -12.000000
v 20.638155 10.000000 -12.947879
v 20.908846 10.000000 -13.958111
v 21.000000 10.000000 -15.000000
v 21.000000 0.000000 -15.000000
v 20.908846 0.000000 -16.041889
v 20.638155 0.000000 -17.052120
v 20.196152 0.000000 -18.000000
v 19.596266 0.000000 -18.856726
v 18.856726 0.000000 -19.596266
v 18.000000 0.000000 -20.196152
v 17.052120 0.000000 -20.638155
v 16.041889 0.000000 -20.908846
v 15.000000 0.000000 -21.000000
v 13.958111 0.000000 -20.908846
v 12.947879 0.000000 -20.638155
v 12.000000 0.000000 -20.196152
v 11.143274 0.000000 -19.596266
v 10.403733 0.000000 -18.856726
v 9.803847 0.000000 -18.000000
v 9.361844 0.000000 -17.052120
v 9.091153 0.000000 -16.041889
v 9.000000 0.000000 -15.000000
v 9.091153 0.000000 -13.958111
v 9.361844 0.000000 -12.947879
v 9.803847 0.000000 -12.000000
v 10.403733 0.000000 -11.143274
v 11.143274 0.000000 -10.403733
v 12.000000 0.000000 -9.803847
v 12.947879 0.000000 -9.361844
v 13.958111 0.000000 -9.091153
v 15.000000 0.000000 -9.000000
v 16.041889 0.000000 -9.091153
v 17.052120 0.000000 -9.361844
v 18.000000 0.000000 -9.803847
v 18.856726 0.000000 -10.403733
v 19.596266 0.000000 -11.143274
v 20.196152 0.000000 -12.000000
v 20.638155 0.000000 -12.947879
v 20.908846 0.000000 -13.958111
v 21.000000 0.000000 -15.000000
vn -1.000000 0.000000 0.000000
vn -0.984808 0.000000 0.173648
vn -0.939693 0.000000 0.342020
vn -0.866025 0.000000 0.500000
vn -0.766044 0.000000 0.642788
vn -0.642788 0.000000 0.766044
vn -0.500000 0.000000 0.866025
vn -0.342020 0.000000 0.939693
vn -0.173648 0.000000 0.984808
vn -0.000000 0.000000 1.000000
vn 0.173648 0.000000 0.984808
vn 0.342020 0.000000 0.939693
vn 0.500000 0.000000 0.866025
vn 0.642788 0.000000 0.766044
vn 0.766044 0.000000 0.642788
vn 0.866025 0.000000 0.500000
vn 0.939693 0.000000 0.342020
vn 0.984808 0.000000 0.173648
vn 1.000000 0.000000 0.000000
vn 0.984808 0.000000 -0.173648
vn 0.939693 0.000000 -0.342020
vn 0.866025 0.000000 -0.500000
vn 0.766044 0.000000 -0.642788
vn 0.642788 0.000000 -0.766044
vn 0.500000 0.000000 -0.866025
vn 0.342020 0.000000 -0.939693
vn 0.173648 0.000000 -0.984808
vn 0.000000 0.000000 -1.000000
vn -0.173648 0.000000 -0.984808
vn -0.342020 0.000000 -0.939693
vn -0.500000 0.000000 -0.866025
vn -0.642788 0.000000 -0.766044
vn -0.766044 0.000000 -0.642788
vn -0.866025 0.000000 -0.500000
vn -0.939693 0.000000 -0.342020
vn -0.984808 0.000000 -0.173648
vn -1.000000 0.000000 -0.000000
vn -1.000000 0.000000 0.000000
vn -0.984808 0.000000 0.173648
vn -0.939693 0.000000 0.342020
vn -0.866025 0.000000 0.500000
vn -0.766044 0.000000 0.642788
vn -0.642788 0.000000 0.766044
vn -0.500000 0.000000 0.866025
vn -0.342020 0.000000 0.939693
vn -0.173648 0.000000 0.984808
vn -0.000000 0.000000 1.000000
vn 0.173648 0.000000 0.984808
vn 0.342020 0.000000 0.939693
vn 0.500000 0.000000 0.866025
vn 0.642788 0.000000 0.766044
vn 0.766044 0.000000 0.642788
vn 0.866025 0.000000 0.500000
vn 0.939693 0.000000 0.342020
vn 0.984808 0.000000 0.173648
vn 1.000000 0.000000 0.000000
vn 0.984808 0.000000 -0.173648
vn 0.939693 0.000000 -0.342020
vn 0.866025 0.000000 -0.500000
vn 0.766044 0.000000 -0.642788
vn 0.642788 0.000000 -0.766044
vn 0.500000 0.000000 -0.866025
vn 0.342020 0.000000 -0.939693
vn 0.173648 0.000000 -0.984808
vn 0.000000 0.000000 -1.000000
vn -0.173648 0.000000 -0.984808
vn -0.342020 0.000000 -0.939693
vn -0.500000 0.000000 -0.866025
vn -0.642788 0.000000 -0.766044
vn -0.766044 0.000000 -0.642788
vn -0.866025 0.000000 -0.500000
vn -0.939693 0.000000 -0.342020
vn -0.984808 0.000000 -0.173648
vn -1.000000 0.000000 -0.000000
vt 0.000000 11.000000
vt 0.174533 11.000000
vt 0.349066 11.000000
vt 0.523599 11.000000
vt 0.698132 11.000000
vt 0.872665 11.000000
vt 1.047198 11.000000
vt 1.221730 11.000000
vt 1.396263 11.000000
vt 1.570796 11.000000
vt 1.745329 11.000000
vt 1.919862 11.000000
vt 2.094395 11.000000
vt 2.268928 11.000000
vt 2.443461 11.000000
vt 2.617994 11.000000
vt 2.792527 11.000000
vt 2.967060 11.000000
vt 3.141593 11.000000
vt 3.316126 11.000000
vt 3.490659 11.000000
vt 3.665191 11.000000
vt 3.839724 11.000000
vt 4.014257 11.000000
vt 4.188790 11.000000
vt 4.363323 11.000000
vt 4.537856 11.000000
vt 4.712389 11.000000
vt 4.886922 11.000000
vt 5.061455 11.000000
vt 5.235988 11.000000
vt 5.410521 11.000000
vt 5.585053 11.000000
vt 5.759586 11.000000
vt 5.934119 11.000000
vt 6.108653 11.000000
vt 6.283185 11.000000
vt 0.000000 1.000000
vt 0.174533 1.000000
vt 0.349066 1.000000
vt 0.523599 1.000000
vt 0.698132 1.000000
vt 0.872665 1.000000
vt 1.047198 1.000000
vt 1.221730 1.000000
vt 1.396263 1.000000
vt 1.570796 1.000000
vt 1.745329 1.000000
vt 1.919862 1.000000
vt 2.094395 1.000000
vt 2.268928 1.000000
vt 2.443461 1.000000
vt 2.617994 1.000000
vt 2.792527 1.000000
vt 2.967060 1.000000
vt 3.141593 1.000000
vt 3.316126 1.000000
vt 3.490659 1.000000
vt 3.665191 1.000000
vt 3.839724 1.000000
vt 4.014257 1.000000
vt 4.188790 1.000000
vt 4.363323 1.000000
vt 4.537856 1.000000
vt 4.712389 1.000000
vt 4.886922 1.000000
vt 5.061455 1.000000
vt 5.235988 1.000000
vt 5.410521 1.000000
vt 5.585053 1.000000
vt 5.759586 1.000000
vt 5.934119 1.000000
vt 6.108653 1.000000
vt 6.283185 1.000000
f 314/314/314 350/350/350 313/313/313
f 314/314/314 351/351/351 350/350/350
f 314/314/314 352/352/352 351/351/351
f 315/315/315 352/352/352 314/314/314
f 316/316/316 353/353/353 352/352/352
f 316/316/316 354/354/354 353/353/353
f 316/316/316 352/352/352 315/315/315
f 317/317/317 355/355/355 354/354/354
f 317/317/317 354/354/354 316/316/316
f 318/318/318 356/356/356 355/355/355
f 318/318/318 355/355/355 317/317/317
f 319/319/319 356/356/356 318/318/318
f 320/320/320 356/356/356 319/319/319
f 320/320/320 357/357/357 356/356/356
f 321/321/321 357/357/357 320/320/320
f 321/321/321 358/358/358 357/357/357
f 322/322/322 358/358/358 321/321/321
f 322/322/322 359/359/359 358/358/358
f 323/323/323 359/359/359 322/322/322
f 323/323/323 360/360/360 359/359/359
f 323/323/323 361/361/361 360/360/360
f 324/324/324 361/361/361 323/323/323
f 325/325/325 361/361/361 324/324/324
f 325/325/325 362/362/362 361/361/361
f 326/326/326 362/362/362 325/325/325
f 326/326/326 363/363/363 362/362/362
f 327/327/327 363/363/363 326/326/326
f 327/327/327 364/364/364 363/363/363
f 327/327/327 365/365/365 364/364/364
f 328/328/328 365/365/365 327/327/327
f 329/329/329 365/365/365 328/328/328
f 329/329/329 366/366/366 365/365/365
f 330/330/330 366/366/366 329/329/329
f 330/330/330 367/367/367 366/366/366
f 331/331/331 367/367/367 330/330/330
f 331/331/331 368/368/368 367/367/367
f 332/332/332 368/368/368 331/331/331
f 332/332/332 369/369/369 368/368/368
f 333/333/333 369/369/369 332/332/332
f 333/333/333 370/370/370 369/369/369
f 334/334/334 371/371/371 370/370/370
f 334/334/334 370/370/370 333/333/333
f 335/335/335 372/372/372 371/371/371
f 335/335/335 373/373/373 372/372/372
f 335/335/335 371/371/371 334/334/334
f 336/336/336 373/373/373 335/335/335
f 337/337/337 374/374/374 373/373/373
f 337/337/337 373/373/373 336/336/336
f 338/338/338 375/375/375 374/374/374
f 338/338/338 374/374/374 337/337/337
f 339/339/339 376/376/376 375/375/375
f 339/339/339 375/375/375 338/338/338
f 340/340/340 377/377/377 376/376/376
f 340/340/340 378/378/378 377/377/377
f 340/340/340 376/376/376 339/339/339
f 341/341/341 379/379/379 378/378/378
f 341/341/341 378/378/378 340/340/340
f 342/342/342 379/379/379 341/341/341
f 343/343/343 380/380/380 379/379/379
f 343/343/343 379/379/379 342/342/342
f 344/344/344 381/381/381 380/380/380
f 344/344/344 380/380/380 343/343/343
f 345/345/345 381/381/381 344/344/344
f 345/345/345 382/382/382 381/381/381
f 346/346/346 382/382/382 345/345/345
f 346/346/346 383/383/383 382/382/382
f 347/347/347 383/383/383 346/346/346
f 347/347/347 384/384/384 383/383/383
f 348/348/348 384/384/384 347/347/347
f 348/348/348 385/385/385 384/384/384
f 348/348/348 386/386/386 385/385/385
f 349/349/349 386/386/386 348/348/348
v 89.000000 10.000000 -15.000000
v 88.939232 10.000000 -15.694592
v 88.758774 10.000000 -16.368080
v 88.464104 10.000000 -17.000000
v 88.064178 10.000000 -17.571150
v 87.571152 10.000000 -18.064178
v 87.000000 10.000000 -18.464102
v 86.368080 10.000000 -18.758770
v 85.694595 10.000000 -18.939232
v 85.000000 10.000000 -19.000000
v 84.305405 10.000000 -18.939232
v 83.631920 10.000000 -18.758770
v 83.000000 10.000000 -18.464102
v 82.428848 10.000000 -18.064178
v 81.935822 10.000000 -17.571150
v 81.535896 10.000000 -17.000000
v 81.241226 10.000000 -16.368080
v 81.060768 10.000000 -15.694592
v 81.000000 10.000000 -15.000000
v 81.060768 10.000000 -14.305408
v 81.241226 10.000000 -13.631920
v 81.535896 10.000000 -13.000000
v 81.935822 10.000000 -12.428849
v 82.428848 10.000000 -11.935822
v 83.000000 10.000000 -11.535898
v 83.631920 10.000000 -11.241229
v 84.305405 10.000000 -11.060769
v 85.000000 10.000000 -11.000000
v 85.694595 10.000000 -11.060769
v 86.368080 10.000000 -11.241229
v 87.000000 10.000000 -11.535898
v 87.571152 10.000000 -11.935822
v 88.064178 10.000000 -12.428849
v 88.464104 10.000000 -13.000000
v 88.758774 10.000000 -13.631920
v 88.939232 10.000000 -14.305408
v 89.000000 10.000000 -15.000000
v 89.000000 0.000000 -15.000000
v 88.939232 0.000000 -15.694592
v 88.758774 0.000000 -16.368080
v 88.464104 0.000000 -17.000000
v 88.064178 0.000000 -17.571150
v 87.571152 0.000000 -18.064178
v 87.000000 0.000000 -18.464102
v 86.368080 0.000000 -18.758770
v 85.694595 0.000000 -18.939232
v 85.000000 0.000000 -19.000000
v 84.305405 0.000000 -18.939232
v 83.631920 0.000000 -18.758770
v 83.000000 0.000000 -18.464102
v 82.428848 0.000000 -18.064178
v 81.935822 0.000000 -17.571150
v 81.535896 0.000000 -17.000000
v 81.241226 0.000000 -16.368080
v 81.060768 0.000000 -15.694592
v 81.000000 0.000000 -15.000000
v 81.060768 0.000000 -14.305408
v 81.241226 0.000000 -13.631920
v 81.535896 0.000000 -13.000000
v 81.935822 0.000000 -12.428849
v 82.428848 0.000000 -11.935822
v 83.000000 0.000000 -11.535898
v 83.631920 0.000000 -11.241229
v 84.305405 0.000000 -11.060769
v 85.000000 0.000000 -11.000000
v 85.694595 0.000000 -11.060769
v 86.368080 0.000000 -11.241229
v 87.000000 0.000000 -11.535898
v 87.571152 0.000000 -11.935822
v 88.064178 0.000000 -12.428849
v 88.464104 0.000000 -13.000000
v 88.758774 0.000000 -13.631920
v 88.939232 0.000000 -14.305408
v 89.000000 0.000000 -15.000000
vn -1.000000 0.000000 0.000000
vn -0.984808 0.000000 0.173648
vn -0.939693 0.000000 0.342020
vn -0.866025 0.000000 0.500000
vn -0.766044 0.000000 0.642788
vn -0.642788 0.000000 0.766044
vn -0.500000 0.000000 0.866025
vn -0.342020 0.000000 0.939693
vn -0.173648 0.000000 0.984808
vn -0.000000 0.000000 1.000000
vn 0.173648 0.000000 0.984808
vn 0.342020 0.000000 0.939693
vn 0.500000 0.000000 0.866025
vn 0.642788 0.000000 0.766044
vn 0.766044 0.000000 0.642788
vn 0.866025 0.000000 0.500000
vn 0.939693 0.000000 0.342020
vn 0.984808 0.000000 0.173648
vn 1.000000 0.000000 0.000000
vn 0.984808 0.000000 -0.173648
vn 0.939693 0.000000 -0.342020
vn 0.866025 0.000000 -0.500000
vn 0.766044 0.000000 -0.642788
vn 0.642788 0.000000 -0.766044
vn 0.500000 0.000000 -0.866025
vn 0.342020 0.000000 -0.939693
vn 0.173648 0.000000 -0.984808
vn 0.000000 0.000000 -1.000000
vn -0.173648 0.000000 -0.984808
vn -0.342020 0.000000 -0.939693
vn -0.500000 0.000000 -0.866025
vn -0.642788 0.000000 -0.766044
vn -0.766044 0.000000 -0.642788
vn -0.866025 0.000000 -0.500000
vn -0.939693 0.000000 -0.342020
vn -0.984808 0.000000 -0.173648
vn -1.000000 0.000000 -0.000000
vn -1.000000 0.000000 0.000000
vn -0.984808 0.000000 0.173648
vn -0.939693 0.000000 0.342020
vn -0.866025 0.000000 0.500000
vn -0.766044 0.000000 0.642788
vn -0.642788 0.000000 0.766044
vn -0.500000 0.000000 0.866025
vn -0.342020 0.000000 0.939693
vn -0.173648 0.000000 0.984808
vn -0.000000 0.000000 1.000000
vn 0.173648 0.000000 0.984808
vn 0.342020 0.000000 0.939693
vn 0.500000 0.000000 0.866025
vn 0.642788 0.000000 0.766044
vn 0.766044 0.000000 0.642788
vn 0.866025 0.000000 0.500000
vn 0.939693 0.000000 0.342020
vn 0.984808 0.000000 0.173648
vn 1.000000 0.000000 0.000000
vn 0.984808 0.000000 -0.173648
vn 0.939693 0.000000 -0.342020
vn 0.866025 0.000000 -0.500000
vn 0.766044 0.000000 -0.642788
vn 0.642788 0.000000 -0.766044
vn 0.500000 0.000000 -0.866025
vn 0.342020 0.000000 -0.939693
vn 0.173648 0.000000 -0.984808
vn 0.000000 0.000000 -1.000000
vn -0.173648 0.000000 -0.984808
vn -0.342020 0.000000 -0.939693
vn -0.500000 0.000000 -0.866025
vn -0.642788 0.000000 -0.766044
vn -0.766044 0.000000 -0.642788
vn -0.866025 0.000000 -0.500000
vn -0.939693 0.000000 -0.342020
vn -0.984808 0.000000 -0.173648
vn -1.000000 0.000000 -0.000000
vt 0.000000 11.000000
vt 0.174533 11.000000
vt 0.349066 11.000000
vt 0.523599 11.000000
vt 0.698132 11.000000
vt 0.872665 11.000000
vt 1.047198 11.000000
vt 1.221730 11.000000
vt 1.396263 11.000000
vt 1.570796 11.000000
vt 1.745329 11.000000
vt 1.919862 11.000000
vt 2.094395 11.000000
vt 2.268928 11.000000
vt 2.443461 11.000000
vt 2.617994 11.000000
vt 2.792527 11.000000
vt 2.967060 11.000000
vt 3.141593 11.000000
vt 3.316126 11.000000
vt 3.490659 11.000000
vt 3.665191 11.000000
vt 3.839724 11.000000
vt 4.014257 11.000000
vt 4.188790 11.000000
vt 4.363323 11.000000
vt 4.537856 11.000000
vt 4.712389 11.000000
vt 4.886922 11.000000
vt 5.061455 11.000000
vt 5.235988 11.000000
vt 5.410521 11.000000
vt 5.585053 11.000000
vt 5.759586 11.000000
vt 5.934119 11.000000
vt 6.108653 11.000000
vt 6.283185 11.000000
vt 0.000000 1.000000
vt 0.174533 1.000000
vt 0.349066 1.000000
vt 0.523599 1.000000
vt 0.698132 1.000000
vt 0.872665 1.000000
vt 1.047198 1.000000
vt 1.221730 1.000000
vt 1.396263 1.000000
vt 1.570796 1.000000
vt 1.745329 1.000000
vt 1.919862 1.000000
vt 2.094395 1.000000
vt 2.268928 1.000000
vt 2.443461 1.000000
vt 2.617994 1.000000
vt 2.792527 1.000000
vt 2.967060 1.000000
vt 3.141593 1.000000
vt 3.316126 1.000000
vt 3.490659 1.000000
vt 3.665191 1.000000
vt 3.839724 1.000000
vt 4.014257 1.000000
vt 4.188790 1.000000
vt 4.363323 1.000000
vt 4.537856 1.000000
vt 4.712389 1.000000
vt 4.886922 1.000000
vt 5.061455 1.000000
vt 5.235988 1.000000
vt 5.410521 1.000000
vt 5.585053 1.000000
vt 5.759586 1.000000
vt 5.934119 1.000000
vt 6.108653 1.000000
vt 6.283185 1.000000
f 388/388/388 424/424/424 387/387/387
f 388/388/388 425/425/425 424/424/424
f 389/389/389 426/426/426 425/425/425
f 389/389/389 425/425/425 388/388/388
f 390/390/390 427/427/427 426/426/426
f 390/390/390 426/426/426 389/389/389
f 391/391/391 428/428/428 427/427/427
f 391/391/391 427/427/427 390/390/390
f 392/392/392 429/429/429 428/428/428
f 392/392/392 430/430/430 429/429/429
f 392/392/392 428/428/428 391/391/391
f 393/393/393 430/430/430 392/392/392
f 393/393/393 431/431/431 430/430/430
f 394/394/394 431/431/431 393/393/393
f 395/395/395 431/431/431 394/394/394
f 395/395/395 432/432/432 431/431/431
f 396/396/396 432/432/432 395/395/395
f 396/396/396 433/433/433 432/432/432
f 397/397/397 433/433/433 396/396/396
f 397/397/397 434/434/434 433/433/433
f 397/397/397 435/435/435 434/434/434
f 398/398/398 435/435/435 397/397/397
f 399/399/399 435/435/435 398/398/398
f 399/399/399 436/436/436 435/435/435
f 399/399/399 437/437/437 436/436/436
f 400/400/400 437/437/437 399/399/399
f 401/401/401 437/437/437 400/400/400
f 401/401/401 438/438/438 437/437/437
f 402/402/402 438/438/438 401/401/401
f 402/402/402 439/439/439 438/438/438
f 403/403/403 439/439/439 402/402/402
f 403/403/403 440/440/440 439/439/439
f 403/403/403 441/441/441 440/440/440
f 404/404/404 441/441/441 403/403/403
f 405/405/405 441/441/441 404/404/404
f 405/405/405 442/442/442 441/441/441
f 406/406/406 442/442/442 405/405/405
f 406/406/406 443/443/443 442/442/442
f 407/407/407 443/443/443 406/406/406
f 407/407/407 444/444/444 443/443/443
f 408/408/408 445/445/445 444/444/444
f 408/408/408 444/444/444 407/407/407
f 409/409/409 446/446/446 445/445/445
f 409/409/409 447/447/447 446/446/446
f 409/409/409 445/445/445 408/408/408
f 410/410/410 447/447/447 409/409/409
f 411/411/411 448/448/448 447/447/447
f 411/411/411 449/449/449 448/448/448
f 411/411/411 447/447/447 410/410/410
f 412/412/412 449/449/449 411/411/411
f 413/413/413 450/450/450 449/449/449
f 413/413/413 449/449/449 412/412/412
f 414/414/414 451/451/451 450/450/450
f 414/414/414 452/452/452 451/451/451
f 414/414/414 450/450/450 413/413/413
f 415/415/415 452/452/452 414/414/414
f 416/416/416 453/453/453 452/452/452
f 416/416/416 454/454/454 453/453/453
f 416/416/416 452/452/452 415/415/415
f 417/417/417 454/454/454 416/416/416
f 418/418/418 454/454/454 417/417/417
f 418/418/418 455/455/455 454/454/454
f 419/419/419 455/455/455 418/418/418
f 419/419/419 456/456/456 455/455/455
f 420/420/420 456/456/456 419/419/419
f 420/420/420 457/457/457 456/456/456
f 421/421/421 457/457/457 420/420/420
f 421/421/421 458/458/458 457/457/457
f 422/422/422 458/458/458 421/421/421
f 422/422/422 459/459/459 458/458/458
f 422/422/422 460/460/460 459/459/459
f 423/423/423 460/460/460 422/422/422
v 18.000000 10.000000 -45.000000
v 17.954424 10.000000 -45.520943
v 17.819078 10.000000 -46.026062
v 17.598076 10.000000 -46.500000
v 17.298134 10.000000 -46.928364
v 16.928362 10.000000 -47.298134
v 16.500000 10.000000 -47.598076
v 16.026060 10.000000 -47.819077
v 15.520945 10.000000 -47.954422
v 15.000000 10.000000 -48.000000
v 14.479055 10.000000 -47.954422
v 13.973940 10.000000 -47.819077
v 13.500000 10.000000 -47.598076
v 13.071637 10.000000 -47.298134
v 12.701867 10.000000 -46.928364
v 12.401924 10.000000 -46.500000
v 12.180923 10.000000 -46.026062
v 12.045577 10.000000 -45.520943
v 12.000000 10.000000 -45.000000
v 12.045577 10.000000 -44.479057
v 12.180923 10.000000 -43.973938
v 12.401924 10.000000 -43.500000
v 12.701867 10.000000 -43.071636
v 13.071637 10.000000 -42.701866
v 13.500000 10.000000 -42.401924
v 13.973940 10.000000 -42.180923
v 14.479055 10.000000 -42.045578
v 15.000000 10.000000 -42.000000
v 15.520945 10.000000 -42.045578
v 16.026060 10.000000 -42.180923
v 16.500000 10.000000 -42.401924
v 16.928362 10.000000 -42.701866
v 17.298134 10.000000 -43.071636
v 17.598076 10.000000 -43.500000
v 17.819078 10.000000 -43.973938
v 17.954424 10.000000 -44.479057
v 18.000000 10.000000 -45.000000
v 18.000000 0.000000 -45.000000
v 17.954424 0.000000 -45.520943
v 17.819078 0.000000 -46.026062
v 17.598076 0.000000 -46.500000
v 17.298134 0.000000 -46.928364
v 16.928362 0.000000 -47.298134
v 16.500000 0.000000 -47.598076
v 16.026060 0.000000 -47.819077
v 15.520945 0.000000 -47.954422
v 15.000000 0.000000 -48.000000
v 14.479055 0.000000 -47.954422
v 13.973940 0.000000 -47.819077
v 13.500000 0.000000 -47.598076
v 13.071637 0.000000 -47.298134
v 12.701867 0.000000 -46.928364
v 12.401924 0.000000 -46.500000
v 12.180923 0.000000 -46.026062
v 12.045577 0.000000 -45.520943
v 12.000000 0.000000 -45.000000
v 12.045577 0.000000 -44.479057
v 12.180923 0.000000 -43.973938
v 12.401924 0.000000 -43.500000
v 12.701867 0.000000 -43.071636
v 13.071637 0.000000 -42.701866
v 13.500000 0.000000 -42.401924
v 13.973940 0.000000 -42.180923
v 14.479055 0.000000 -42.045578
v 15.000000 0.000000 -42.000000
v 15.520945 0.000000 -42.045578
v 16.026060 0.000000 -42.180923
v 16.500000 0.000000 -42.401924
v 16.928362 0.000000 -42.701866
v 17.298134 0.000000 -43.071636
v 17.598076 0.000000 -43.500000
v 17.819078 0.000000 -43.973938
v 17.954424 0.000000 -44.479057
v 18.000000 0.000000 -45.000000
vn -1.000000 0.000000 0.000000
vn -0.984808 0.000000 0.173648
vn -0.939693 0.000000 0.342020
vn -0.866025 0.000000 0.500000
vn -0.766044 0.000000 0.642788
vn -0.642788 0.000000 0.766044
vn -0.500000 0.000000 0.866025
vn -0.342020 0.000000 0.939693
vn -0.173648 0.000000 0.984808
vn -0.000000 0.000000 1.000000
vn 0.173648 0.000000 0.984808
vn 0.342020 0.000000 0.939693
vn 0.500000 0.000000 0.866025
vn 0.642788 0.000000 0.766044
vn 0.766044 0.000000 0.642788
vn 0.866025 0.000000 0.500000
vn 0.939693 0.000000 0.342020
vn 0.984808 0.000000 0.173648
vn 1.000000 0.000000 0.000000
vn 0.984808 0.000000 -0.173648
vn 0.939693 0.000000 -0.342020
vn 0.866025 0.000000 -0.500000
vn 0.766044 0.000000 -0.642788
vn 0.642788 0.000000 -0.766044
vn 0.500000 0.000000 -0.866025
vn 0.342020 0.000000 -0.939693
vn 0.173648 0.000000 -0.984808
vn 0.000000 0.000000 -1.000000
vn -0.173648 0.000000 -0.984808
vn -0.342020 0.000000 -0.939693
vn -0.500000 0.000000 -0.866025
vn -0.642788 0.000000 -0.766044
vn -0.766044 0.000000 -0.642788
vn -0.866025 0.000000 -0.500000
vn -0.939693 0.000000 -0.342020
vn -0.984808 0.000000 -0.173648
vn -1.000000 0.000000 -0.000000
vn -1.000000 0.000000 0.000000
vn -0.984808 0.000000 0.173648
vn -0.939693 0.000000 0.342020
vn -0.866025 0.000000 0.500000
vn -0.766044 0.000000 0.642788
vn -0.642788 0.000000 0.766044
vn -0.500000 0.000000 0.866025
vn -0.342020 0.000000 0.939693
vn -0.173648 0.000000 0.984808
vn -0.000000 0.000000 1.000000
vn 0.173648 0.000000 0.984808
vn 0.342020 0.000000 0.939693
vn 0.500000 0.000000 0.866025
vn 0.642788 0.000000 0.766044
vn 0.766044 0.000000 0.642788
vn 0.866025 0.000000 0.500000
vn 0.939693 0.000000 0.342020
vn 0.984808 0.000000 0.173648
vn 1.000000 0.000000 0.000000
vn 0.984808 0.000000 -0.173648
vn 0.939693 0.000000 -0.342020
vn 0.866025 0.000000 -0.500000
vn 0.766044 0.000000 -0.642788
vn 0.642788 0.000000 -0.766044
vn 0.500000 0.000000 -0.866025
vn 0.342020 0.000000 -0.939693
vn 0.173648 0.000000 -0.984808
vn 0.000000 0.000000 -1.000000
vn -0.173648 0.000000 -0.984808
vn -0.342020 0.000000 -0.939693
vn -0.500000 0.000000 -0.866025
vn -0.642788 0.000000 -0.766044
vn -0.766044 0.000000 -0.642788
vn -0.866025 0.000000 -0.500000
vn -0.939693 0.000000 -0.342020
vn -0.984808 0.000000 -0.173648
vn -1.000000 0.000000 -0.000000
vt 0.000000 11.000000
vt 0.174533 11.000000
vt 0.349066 11.000000
vt 0.523599 11.000000
vt 0.698132 11.000000
vt 0.872665 11.000000
vt 1.047198 11.000000
vt 1.221730 11.000000
vt 1.396263 11.000000
vt 1.570796 11.000000
vt 1.745329 11.000000
vt 1.919862 11.000000
vt 2.094395 11.000000
vt 2.268928 11.000000
vt 2.443461 11.000000
vt 2.617994 11.000000
vt 2.792527 11.000000
vt 2.967060 11.000000
vt 3.141593 11.000000
vt 3.316126 11.000000
vt 3.490659 11.000000
vt 3.665191 11.000000
vt 3.839724 11.000000
vt 4.014257 11.000000
vt 4.188790 11.000000
vt 4.363323 11.000000
vt 4.537856 11.000000
vt 4.712389 11.000000
vt 4.886922 11.000000
vt 5.061455 11.000000
vt 5.235988 11.000000
vt 5.410521 11.000000
vt 5.585053 11.000000
vt 5.759586 11.000000
vt 5.934119 11.000000
vt 6.108653 11.000000
vt 6.283185 11.000000
vt 0.000000 1.000000
vt 0.174533 1.000000
vt 0.349066 1.000000
vt 0.523599 1.000000
vt 0.698132 1.000000
vt 0.872665 1.000000
vt 1.047198 1.000000
vt 1.221730 1.000000
vt 1.396263 1.000000
vt 1.570796 1.000000
vt 1.745329 1.000000
vt 1.919862 1.000000
vt 2.094395 1.000000
vt 2.268928 1.000000
vt 2.443461 1.000000
vt 2.617994 1.000000
vt 2.792527 1.000000
vt 2.967060 1.000000
vt 3.141593 1.000000
vt 3.316126 1.000000
vt 3.490659 1.000000
vt 3.665191 1.000000
vt 3.839724 1.000000
vt 4.014257 1.000000
vt 4.188790 1.000000
vt 4.363323 1.000000
vt 4.537856 1.000000
vt 4.712389 1.000000
vt 4.886922 1.000000
vt 5.061455 1.000000
vt 5.235988 1.000000
vt 5.410521 1.000000
vt 5.585053 1.000000
vt 5.759586 1.000000
vt 5.934119 1.000000
vt 6.108653 1.000000
vt 6.283185 1.000000
f 461/461/461 499/499/499 498/498/498
f 462/462/462 499/499/499 461/461/461
f 463/463/463 500/500/500 499/499/499
f 463/463/463 501/501/501 500/500/500
f 463/463/463 499/499/499 462/462/462
f 464/464/464 501/501/501 463/463/463
f 465/465/465 502/502/502 501/501/501
f 465/465/465 503/503/503 502/502/502
f 465/465/465 501/501/501 464/464/464
f 466/466/466 503/503/503 465/465/465
f 467/467/467 503/503/503 466/466/466
f 467/467/467 504/504/504 503/503/503
f 468/468/468 504/504/504 467/467/467
f 468/468/468 505/505/505 504/504/504
f 468/468/468 506/506/506 505/505/505
f 469/469/469 506/506/506 468/468/468
f 469/469/469 507/507/507 506/506/506
f 470/470/470 507/507/507 469/469/469
f 471/471/471 507/507/507 470/470/470
f 471/471/471 508/508/508 507/507/507
f 471/471/471 509/509/509 508/508/508
f 472/472/472 509/509/509 471/471/471
f 473/473/473 509/509/509 472/472/472
f 473/473/473 510/510/510 509/509/509
f 474/474/474 510/510/510 473/473/473
f 474/474/474 511/511/511 510/510/510
f 475/475/475 511/511/511 474/474/474
f 475/475/475 512/512/512 511/511/511
f 475/475/475 513/513/513 512/512/512
f 476/476/476 513/513/513 475/475/475
f 476/476/476 514/514/514 513/513/513
f 477/477/477 514/514/514 476/476/476
f 478/478/478 514/514/514 477/477/477
f 478/478/478 515/515/515 514/514/514
f 479/479/479 515/515/515 478/478/478
f 479/479/479 516/516/516 515/515/515
f 480/480/480 517/517/517 516/516/516
f 480/480/480 516/516/516 479/479/479
f 481/481/481 518/518/518 517/517/517
f 481/481/481 517/517/517 480/480/480
f 482/482/482 519/519/519 518/518/518
f 482/482/482 518/518/518 481/481/481
f 483/483/483 520/520/520 519/519/519
f 483/483/483 521/521/521 520/520/520
f 483/483/483 519/519/519 482/482/482
f 484/484/484 521/521/521 483/483/483
f 485/485/485 522/522/522 521/521/521
f 485/485/485 521/521/521 484/484/484
f 486/486/486 523/523/523 522/522/522
f 486/486/486 522/522/522 485/485/485
f 487/487/487 524/524/524 523/523/523
f 487/487/487 523/523/523 486/486/486
f 488/488/488 525/525/525 524/524/524
f 488/488/488 526/526/526 525/525/525
f 488/488/488 524/524/524 487/487/487
f 489/489/489 526/526/526 488/488/488
f 490/490/490 527/527/527 526/526/526
f 490/490/490 528/528/528 527/527/527
f 490/490/490 526/526/526 489/489/489
f 491/491/491 528/528/528 490/490/490
f 492/492/492 528/528/528 491/491/491
f 492/492/492 529/529/529 528/528/528
f 493/493/493 529/529/529 492/492/492
f 493/493/493 530/530/530 529/529/529
f 494/494/494 530/530/530 493/493/493
f 494/494/494 531/531/531 530/530/530
f 494/494/494 532/532/532 531/531/531
f 495/495/495 532/532/532 494/494/494
f 496/496/496 532/532/532 495/495/495
f 496/496/496 533/533/533 532/532/532
f 497/497/497 533/533/533 496/496/496
f 497/497/497 534/534/534 533/533/533
v 87.500000 10.000000 -45.000000
v 87.462021 10.000000 -45.434120
v 87.349228 10.000000 -45.855049
v 87.165062 10.000000 -46.250000
v 86.915108 10.000000 -46.606968
v 86.606972 10.000000 -46.915112
v 86.250000 10.000000 -47.165062
v 85.855049 10.000000 -47.349232
v 85.434120 10.000000 -47.462021
v 85.000000 10.000000 -47.500000
v 84.565880 10.000000 -47.462021
v 84.144951 10.000000 -47.349232
v 83.750000 10.000000 -47.165062
v 83.393028 10.000000 -46.915112
v 83.084892 10.000000 -46.606968
v 82.834938 10.000000 -46.250000
v 82.650772 10.000000 -45.855049
v 82.537979 10.000000 -45.434120
v 82.500000 10.000000 -45.000000
v 82.537979 10.000000 -44.565880
v 82.650772 10.000000 -44.144951
v 82.834938 10.000000 -43.750000
v 83.084892 10.000000 -43.393032
v 83.393028 10.000000 -43.084888
v 83.750000 10.000000 -42.834938
v 84.144951 10.000000 -42.650768
v 84.565880 10.000000 -42.537979
v 85.000000 10.000000 -42.500000
v 85.434120 10.000000 -42.537979
v 85.855049 10.000000 -42.650768
v 86.250000 10.000000 -42.834938
v 86.606972 10.000000 -43.084888
v 86.915108 10.000000 -43.393032
v 87.165062 10.000000 -43.750000
v 87.349228 10.000000 -44.144951
v 87.462021 10.000000 -44.565880
v 87.500000 10.000000 -45.000000
v 87.500000 0.000000 -45.000000
v 87.462021 0.000000 -45.434120
v 87.349228 0.000000 -45.855049
v 87.165062 0.000000 -46.250000
v 86.915108 0.000000 -46.606968
v 86.606972 0.000000 -46.915112
v 86.250000 0.000000 -47.165062
v 85.855049 0.000000 -47.349232
v 85.434120 0.000000 -47.462021
v 85.000000 0.000000 -47.500000
v 84.565880 0.000000 -47.462021
v 84.144951 0.000000 -47.349232
v 83.750000 0.000000 -47.165062
v 83.393028 0.000000 -46.915112
v 83.084892 0.000000 -46.606968
v 82.834938 0.000000 -46.250000
v 82.650772 0.000000 -45.855049
v 82.537979 0.000000 -45.434120
v 82.500000 0.000000 -45.000000
v 82.537979 0.000000 -44.565880
v 82.650772 0.000000 -44.144951
v 82.834938 0.000000 -43.750000
v 83.084892 0.000000 -43.393032
v 83.393028 0.000000 -43.084888
v 83.750000 0.000000 -42.834938
v 84.144951 0.000000 -42.650768
v 84.565880 0.000000 -42.537979
v 85.000000 0.000000 -42.500000
v 85.434120 0.000000 -42.537979
v 85.855049 0.000000 -42.650768
v 86.250000 0.000000 -42.834938
v 86.606972 0.000000 -43.084888
v 86.915108 0.000000 -43.393032
v 87.165062 0.000000 -43.750000
v 87.349228 0.000000 -44.144951
v 87.462021 0.000000 -44.565880
v 87.500000 0.000000 -45.000000
vn -1.000000 0.000000 0.000000
vn -0.984808 0.000000 0.173648
vn -0.939693 0.000000 0.342020
vn -0.866025 0.000000 0.500000
vn -0.766044 0.000000 0.642788
vn -0.642788 0.000000 0.766044
vn -0.500000 0.000000 0.866025
vn -0.342020 0.000000 0.939693
vn -0.173648 0.000000 0.984808
vn -0.000000 0.000000 1.000000
vn 0.173648 0.000000 0.984808
vn 0.342020 0.000000 0.939693
vn 0.500000 0.000000 0.866025
vn 0.642788 0.000000 0.766044
vn 0.766044 0.000000 0.642788
vn 0.866025 0.000000 0.500000
vn 0.939693 0.000000 0.342020
vn 0.984808 0.000000 0.173648
vn 1.000000 0.000000 0.000000
vn 0.984808 0.000000 -0.173648
vn 0.939693 0.000000 -0.342020
vn 0.866025 0.000000 -0.500000
vn 0.766044 0.000000 -0.642788
vn 0.642788 0.000000 -0.766044
vn 0.500000 0.000000 -0.866025
vn 0.342020 0.000000 -0.939693
vn 0.173648 0.000000 -0.984808
vn 0.000000 0.000000 -1.000000
vn -0.173648 0.000000 -0.984808
vn -0.342020 0.000000 -0.939693
vn -0.500000 0.000000 -0.866025
vn -0.642788 0.000000 -0.766044
vn -0.766044 0.000000 -0.642788
vn -0.866025 0.000000 -0.500000
vn -0.939693 0.000000 -0.342020
vn -0.984808 0.000000 -0.173648
vn -1.000000 0.000000 -0.000000
vn -1.000000 0.000000 0.000000
vn -0.984808 0.000000 0.173648
vn -0.939693 0.000000 0.342020
vn -0.866025 0.000000 0.500000
vn -0.766044 0.000000 0.642788
vn -0.642788 0.000000 0.766044
vn -0.500000 0.000000 0.866025
vn -0.342020 0.000000 0.939693
vn -0.173648 0.000000 0.984808
vn -0.000000 0.000000 1.000000
vn 0.173648 0.000000 0.984808
vn 0.342020 0.000000 0.939693
vn 0.500000 0.000000 0.866025
vn 0.642788 0.000000 0.766044
vn 0.766044 0.000000 0.642788
vn 0.866025 0.000000 0.500000
vn 0.939693 0.000000 0.342020
vn 0.984808 0.000000 0.173648
vn 1.000000 0.000000 0.000000
vn 0.984808 0.000000 -0.173648
vn 0.939693 0.000000 -0.342020
vn 0.866025 0.000000 -0.500000
vn 0.766044 0.000000 -0.642788
vn 0.642788 0.000000 -0.766044
vn 0.500000 0.000000 -0.866025
vn 0.342020 0.000000 -0.939693
vn 0.173648 0.000000 -0.984808
vn 0.000000 0.000000 -1.000000
vn -0.173648 0.000000 -0.984808
vn -0.342020 0.000000 -0.939693
vn -0.500000 0.000000 -0.866025
vn -0.642788 0.000000 -0.766044
vn -0.766044 0.000000 -0.642788
vn -0.866025 0.000000 -0.500000
vn -0.939693 0.000000 -0.342020
vn -0.984808 0.000000 -0.173648
vn -1.000000 0.000000 -0.000000
vt 0.000000 11.000000
vt 0.174533 11.000000
vt 0.349066 11.000000
vt 0.523599 11.000000
vt 0.698132 11.000000
vt 0.872665 11.000000
vt 1.047198 11.000000
vt 1.221730 11.000000
vt 1.396263 11.000000
vt 1.570796 11.000000
vt 1.745329 11.000000
vt 1.919862 11.000000
vt 2.094395 11.000000
vt 2.268928 11.000000
vt 2.443461 11.000000
vt 2.617994 11.000000
vt 2.792527 11.000000
vt 2.967060 11.000000
vt 3.141593 11.000000
vt 3.316126 11.000000
vt 3.490659 11.000000
vt 3.665191 11.000000
vt 3.839724 11.000000
vt 4.014257 11.000000
vt 4.188790 11.000000
vt 4.363323 11.000000
vt 4.537856 11.000000
vt 4.712389 11.000000
vt 4.886922 11.000000
vt 5.061455 11.000000
vt 5.235988 11.000000
vt 5.410521 11.000000
vt 5.585053 11.000000
vt 5.759586 11.000000
vt 5.934119 11.000000
vt 6.108653 11.000000
vt 6.283185 11.000000
vt 0.000000 1.000000
vt 0.174533 1.000000
vt 0.349066 1.000000
vt 0.523599 1.000000
vt 0.698132 1.000000
vt 0.872665 1.000000
vt 1.047198 1.000000
vt 1.221730 1.000000
vt 1.396263 1.000000
vt 1.570796 1.000000
vt 1.745329 1.000000
vt 1.919862 1.000000
vt 2.094395 1.000000
vt 2.268928 1.000000
vt 2.443461 1.000000
vt 2.617994 1.000000
vt 2.792527 1.000000
vt 2.967060 1.000000
vt 3.141593 1.000000
vt 3.316126 1.000000
vt 3.490659 1.000000
vt 3.665191 1.000000
vt 3.839724 1.000000
vt 4.014257 1.000000
vt 4.188790 1.000000
vt 4.363323 1.000000
vt 4.537856 1.000000
vt 4.712389 1.000000
vt 4.886922 1.000000
vt 5.061455 1.000000
vt 5.235988 1.000000
vt 5.410521 1.000000
vt 5.585053 1.000000
vt 5.759586 1.000000
vt 5.934119 1.000000
vt 6.108653 1.000000
vt 6.283185 1.000000
f 535/535/535 573/573/573 572/572/572
f 536/536/536 573/573/573 535/535/535
f 537/537/537 574/574/574 573/573/573
f 537/537/537 575/575/575 574/574/574
f 537/537/537 573/573/573 536/536/536
f 538/538/538 575/575/575 537/537/537
f 539/539/539 576/576/576 575/575/575
f 539/539/539 577/577/577 576/576/576
f 539/539/539 575/575/575 538/538/538
f 540/540/540 577/577/577 539/539/539
f 541/541/541 577/577/577 540/540/540
f 541/541/541 578/578/578 577/577/577
f 542/542/542 578/578/578 541/541/541
f 542/542/542 579/579/579 578/578/578
f 542/542/542 580/580/580 579/579/579
f 543/543/543 580/580/580 542/542/542
f 543/543/543 581/581/581 580/580/580
f 544/544/544 581/581/581 543/543/543
f 545/545/545 581/581/581 544/544/544
f 545/545/545 582/582/582 581/581/581
f 545/545/545 583/583/583 582/582/582
f 546/546/546 583/583/583 545/545/545
f 547/547/547 583/583/583 546/546/546
f 547/547/547 584/584/584 583/583/583
f 548/548/548 584/584/584 547/547/547
f 548/548/548 585/585/585 584/584/584
f 549/549/549 585/585/585 548/548/548
f 549/549/549 586/586/586 585/585/585
f 549/549/549 587/587/587 586/586/586
f 550/550/550 587/587/587 549/549/549
f 550/550/550 588/588/588 587/587/587
f 551/551/551 588/588/588 550/550/550
f 552/552/552 588/588/588 551/551/551
f 552/552/552 589/589/589 588/588/588
f 553/553/553 589/589/589 552/552/552
f 553/553/553 590/590/590 589/589/589
f 554/554/554 591/591/591 590/590/590
f 554/554/554 590/590/590 553/553/553
f 555/555/555 592/592/592 591/591/591
f 555/555/555 591/591/591 554/554/554
f 556/556/556 593/593/593 592/592/592
f 556/556/556 592/592/592 555/555/555
f 557/557/557 594/594/594 593/593/593
f 557/557/557 595/595/595 594/594/594
f 557/557/557 593/593/593 556/556/556
f 558/558/558 595/595/595 557/557/557
f 559/559/559 596/596/596 595/595/595
f 559/559/559 595/595/595 558/558/558
f 560/560/560 597/597/597 596/596/596
f 560/560/560 596/596/596 559/559/559
f 561/561/561 598/598/598 597/597/597
f 561/561/561 597/597/597 560/560/560
f 562/562/562 599/599/599 598/598/598
f 562/562/562 600/600/600 599/599/599
f 562/562/562 598/598/598 561/561/561
f 563/563/563 600/600/600 562/562/562
f 564/564/564 601/601/601 600/600/600
f 564/564/564 602/602/602 601/601/601
f 564/564/564 600/600/600 563/563/563
f 565/565/565 602/602/602 564/564/564
f 566/566/566 602/602/602 565/565/565
f 566/566/566 603/603/603 602/602/602
f 567/567/567 603/603/603 566/566/566
f 567/567/567 604/604/604 603/603/603
f 568/568/568 604/604/604 567/567/567
f 568/568/568 605/605/605 604/604/604
f 568/568/568 606/606/606 605/605/605
f 569/569/569 606/606/606 568/568/568
f 570/570/570 606/606/606 569/569/569
f 570/570/570 607/607/607 606/606/606
f 571/571/571 607/607/607 570/570/570
f 571/571/571 608/608/608 607/607/607
